<?xml version="1.0" encoding="utf-8"?>
<!-- Generator: Adobe Illustrator 15.1.0, SVG Export Plug-In  -->
<!DOCTYPE svg PUBLIC "-//W3C//DTD SVG 1.1//EN" "http://www.w3.org/Graphics/SVG/1.1/DTD/svg11.dtd" [
	<!ENTITY ns_flows "http://ns.adobe.com/Flows/1.0/">
]>
<svg version="1.1"
	 xmlns="http://www.w3.org/2000/svg" xmlns:xlink="http://www.w3.org/1999/xlink" xmlns:a="http://ns.adobe.com/AdobeSVGViewerExtensions/3.0/"
	 x="0px" y="0px" width="340px" height="340px" viewBox="-2.533 -136.373 340 340"
	 overflow="visible" enable-background="new -2.533 -136.373 340 340" xml:space="preserve">
<defs>
</defs>
<path fill="#D21F36" d="M34.303,47.681c-3.233,3.992-8.143,5.987-14.727,5.987S8.084,51.673,4.851,47.681
	C1.617,43.689,0,38.885,0,33.266c0-5.525,1.617-10.312,4.851-14.363c3.233-4.049,8.142-6.074,14.726-6.074
	s11.493,2.025,14.727,6.074c3.233,4.051,4.85,8.838,4.85,14.363C39.152,38.885,37.536,43.689,34.303,47.681z M26.289,42.145
	c1.57-2.082,2.355-5.042,2.355-8.879s-0.785-6.791-2.355-8.861c-1.569-2.071-3.819-3.105-6.748-3.105s-5.184,1.034-6.766,3.105
	c-1.581,2.07-2.372,5.024-2.372,8.861s0.791,6.797,2.372,8.879c1.582,2.083,3.837,3.124,6.766,3.124S24.72,44.228,26.289,42.145z"/>
<path fill="#D21F36" d="M78.179,18.171c3.125,3.304,4.688,8.153,4.688,14.55c0,6.748-1.527,11.892-4.581,15.43
	s-6.986,5.307-11.798,5.307c-3.065,0-5.612-0.762-7.641-2.284c-1.108-0.844-2.193-2.073-3.254-3.69v19.963h-9.911V14.059h9.595
	v5.658c1.084-1.663,2.239-2.976,3.466-3.937c2.24-1.71,4.904-2.565,7.994-2.565C71.24,13.215,75.054,14.867,78.179,18.171z
	 M70.491,25.375c-1.361-2.272-3.568-3.408-6.622-3.408c-3.67,0-6.189,1.722-7.563,5.166c-0.71,1.827-1.064,4.147-1.064,6.959
	c0,4.452,1.193,7.58,3.583,9.384c1.42,1.055,3.102,1.582,5.043,1.582c2.816,0,4.966-1.078,6.445-3.233
	c1.48-2.156,2.221-5.026,2.221-8.611C72.533,30.261,71.852,27.648,70.491,25.375z"/>
<path fill="#D21F36" d="M172.999,14.727h6.01v6.502c0.492-1.266,1.699-2.807,3.62-4.622c1.922-1.815,4.136-2.724,6.643-2.724
	c0.117,0,0.316,0.012,0.598,0.035s0.762,0.07,1.441,0.141v6.678c-0.375-0.07-0.721-0.117-1.037-0.141s-0.662-0.035-1.037-0.035
	c-3.187,0-5.635,1.025-7.346,3.075c-1.71,2.05-2.565,4.411-2.565,7.082v21.649h-6.326V14.727z"/>
<path fill="#D21F36" d="M221.843,15.763c2.491,1.254,4.389,2.876,5.693,4.868c1.257,1.897,2.096,4.112,2.515,6.643
	c0.373,1.733,0.56,4.499,0.56,8.294h-27.379c0.116,3.83,1.012,6.902,2.686,9.217s4.266,3.472,7.776,3.472
	c3.277,0,5.893-1.095,7.847-3.283c1.092-1.271,1.866-2.742,2.322-4.414h6.221c-0.164,1.383-0.709,2.923-1.634,4.622
	c-0.926,1.698-1.959,3.087-3.098,4.164c-1.907,1.875-4.268,3.14-7.08,3.796c-1.513,0.375-3.221,0.562-5.128,0.562
	c-4.657,0-8.604-1.704-11.841-5.113c-3.236-3.409-4.854-8.184-4.854-14.322c0-6.045,1.631-10.954,4.891-14.727
	s7.521-5.658,12.784-5.658C216.777,13.883,219.35,14.51,221.843,15.763z M224.108,30.542c-0.256-2.741-0.849-4.933-1.778-6.572
	c-1.719-3.046-4.588-4.569-8.607-4.569c-2.881,0-5.297,1.049-7.249,3.146c-1.951,2.098-2.985,4.763-3.102,7.996H224.108z"/>
<path fill="#D21F36" d="M240.599,0.738h6.326v51.629h-6.326V0.738z"/>
<path fill="#D21F36" d="M258.215,0.738h6.432v7.17h-6.432V0.738z M258.215,14.902h6.432v37.465h-6.432V14.902z"/>
<path fill="#D21F36" d="M299.256,15.763c2.491,1.254,4.389,2.876,5.693,4.868c1.258,1.897,2.096,4.112,2.515,6.643
	c0.373,1.733,0.56,4.499,0.56,8.294h-27.379c0.116,3.83,1.012,6.902,2.686,9.217s4.266,3.472,7.776,3.472
	c3.277,0,5.893-1.095,7.847-3.283c1.092-1.271,1.866-2.742,2.322-4.414h6.221c-0.164,1.383-0.709,2.923-1.634,4.622
	c-0.926,1.698-1.959,3.087-3.097,4.164c-1.908,1.875-4.269,3.14-7.081,3.796c-1.513,0.375-3.221,0.562-5.128,0.562
	c-4.656,0-8.604-1.704-11.841-5.113c-3.236-3.409-4.854-8.184-4.854-14.322c0-6.045,1.631-10.954,4.891-14.727
	s7.521-5.658,12.784-5.658C294.19,13.883,296.763,14.51,299.256,15.763z M301.521,30.542c-0.256-2.741-0.849-4.933-1.777-6.572
	c-1.72-3.046-4.589-4.569-8.608-4.569c-2.881,0-5.297,1.049-7.249,3.146c-1.951,2.098-2.985,4.763-3.102,7.996H301.521z"/>
<path fill="#D21F36" d="M320.788,3.233C322.265,1.078,325.111,0,329.329,0c0.398,0,0.809,0.012,1.229,0.035
	c0.422,0.023,0.902,0.059,1.441,0.105v5.764c-0.664-0.047-1.144-0.076-1.439-0.088s-0.574-0.018-0.835-0.018
	c-1.943,0-3.104,0.498-3.483,1.494s-0.568,3.532-0.568,7.609H332v4.99h-6.326v32.475h-6.256V19.893h-5.237v-4.99h5.237V8.997
	C319.512,6.373,319.969,4.452,320.788,3.233z"/>
<path fill="#D21F36" d="M115.518,14.835c2.672,1.196,4.879,3.086,6.62,5.667c1.569,2.275,2.586,4.915,3.052,7.92
	c0.271,1.76,0.38,4.294,0.331,7.603H97.618c0.155,3.843,1.491,6.537,4.006,8.084c1.531,0.961,3.371,1.44,5.522,1.44
	c2.283,0,4.137-0.585,5.563-1.757c0.776-0.633,1.464-1.511,2.061-2.636h10.227c-0.27,2.272-1.507,4.58-3.714,6.924
	c-3.432,3.726-8.234,5.588-14.412,5.588c-5.099,0-9.597-1.57-13.494-4.713c-3.896-3.144-5.846-8.255-5.846-15.338
	c0-6.636,1.76-11.725,5.278-15.266c3.518-3.541,8.084-5.312,13.699-5.312C109.843,13.039,112.846,13.638,115.518,14.835z
	 M100.532,23.487c-1.415,1.46-2.305,3.436-2.668,5.93h17.257c-0.183-2.659-1.071-4.676-2.668-6.053
	c-1.598-1.378-3.577-2.065-5.94-2.065C103.94,21.299,101.948,22.028,100.532,23.487z"/>
<path fill="#D21F36" d="M161.116,16.255c2.509,2.074,3.763,5.513,3.763,10.315v25.797h-10.263V29.065
	c0-2.015-0.268-3.562-0.802-4.639c-0.978-1.969-2.839-2.952-5.583-2.952c-3.372,0-5.687,1.44-6.942,4.322
	c-0.65,1.523-0.977,3.468-0.977,5.835v20.735h-10.017V14.129h9.7v5.588c1.282-1.968,2.496-3.386,3.64-4.253
	c2.053-1.546,4.654-2.319,7.804-2.319C155.383,13.145,158.608,14.182,161.116,16.255z"/>
</svg>
