<?xml version="1.0" encoding="UTF-8" standalone="no"?>
<!-- Created with Inkscape (http://www.inkscape.org/) -->

<svg
   xmlns:dc="http://purl.org/dc/elements/1.1/"
   xmlns:cc="http://creativecommons.org/ns#"
   xmlns:rdf="http://www.w3.org/1999/02/22-rdf-syntax-ns#"
   xmlns:svg="http://www.w3.org/2000/svg"
   xmlns="http://www.w3.org/2000/svg"
   version="1.2"
   width="749"
   height="543"
   id="svg3045">
  <metadata
     id="metadata3051">
    <rdf:RDF>
      <cc:Work
         rdf:about="">
        <dc:format>image/svg+xml</dc:format>
        <dc:type
           rdf:resource="http://purl.org/dc/dcmitype/StillImage" />
        <dc:title></dc:title>
      </cc:Work>
    </rdf:RDF>
  </metadata>
  <defs
     id="defs3049" />
  <path
     d="m 54.818198,348.24862 c -4.4783,-1.37589 -8.42946,-3.83457 -11.63157,-7.23798 -5.34138,-5.67716 -6.82012,-9.53181 -6.8421,-17.83532 -0.0165,-6.22761 0.40428,-8.21757 2.48015,-11.72965 1.375,-2.32631 35.98662,-62.17631 76.914712,-133 40.9281,-70.82369 76.12592,-131.495739 78.2174,-134.826775 3.87277,-6.16808 8.59198,-10.624222 14.86789,-14.039122 3.39264,-1.846028 8.34676,-1.913853 161.5,-2.211044 111.50837,-0.21638 159.47125,0.01457 163,0.784869 6.97549,1.522702 13.32238,6.500979 17.35062,13.609214 1.84284,3.251882 37.36437,64.862508 78.93672,136.912508 41.57235,72.05 76.43911,133.45623 77.48169,136.45828 3.22881,9.29725 0.4408,19.48841 -7.21925,26.38889 -5.6802,5.11695 -9.69799,6.65283 -17.40347,6.65283 -7.70447,0 -15.35033,-3.49475 -19.69029,-9 -1.51753,-1.925 -32.08173,-54.35 -67.92044,-116.5 -35.8387,-62.15 -65.4705,-113.29769 -65.84843,-113.66153 -0.37793,-0.36385 -30.14211,50.48615 -66.14261,113 -69.71945,121.06583 -70.11535,121.68876 -79.54454,125.16281 -3.45445,1.27274 -25.95823,1.49885 -165,1.65791 -88.55,0.1013 -162.127922,-0.16236 -163.506482,-0.58589 z M 421.91363,189.06524 c 34.32608,-59.46054 62.56105,-108.510539 62.74438,-108.999995 0.19363,-0.516947 -52.44658,-0.88992 -125.60035,-0.88992 l -125.93368,0 -62.39965,108.095565 c -34.31981,59.45256 -62.54965,108.50256 -62.73298,109 -0.19763,0.53622 50.93245,0.90443 125.58895,0.90443 l 125.92228,0 z"
     id="path3055"
     style="fill:#000000" />
  <path
     d="m 236.11736,518.06677 c -5.20975,-0.83167 -11.06102,-2.66891 -14.09003,-4.42411 -3.61328,-2.09376 -8.12706,-7.17024 -10.43976,-11.7412 -1.70117,-3.36232 -3.94948,-11.69814 -3.41466,-12.66024 0.12512,-0.22506 4.06457,-0.61103 8.75433,-0.85768 4.68976,-0.24666 10.2224,-0.62337 12.29475,-0.83711 3.54818,-0.36596 3.79281,-0.29649 4.19483,1.1914 1.47999,5.47759 2.19061,6.85415 4.76183,9.22421 7.85713,7.24245 21.64823,4.11602 21.64823,-4.90766 0,-5.5178 -3.30624,-7.70387 -16.79166,-11.10258 -22.9024,-5.77205 -31.54504,-13.17319 -31.53833,-27.00789 0.002,-4.46494 0.30548,-5.9667 1.85196,-9.16918 3.46906,-7.18381 9.6008,-11.77551 19.11329,-14.31282 6.1721,-1.64632 23.31511,-1.65594 29.36705,-0.0165 11.59214,3.14029 17.82892,9.21246 20.28768,19.75228 1.13341,4.85846 2.09627,4.48054 -13.04084,5.11868 l -11.10757,0.46827 -0.42794,-1.94848 c -1.2193,-5.55137 -5.78602,-8.8611 -12.26344,-8.88796 -9.12782,-0.0378 -12.85202,7.54194 -5.68772,11.57607 0.43263,0.24361 5.63604,1.64476 11.56312,3.11367 13.04887,3.23391 19.98885,5.83035 24.80822,9.28142 6.11676,4.38012 9.11553,9.86635 9.71331,17.77041 0.98283,12.99515 -7.34483,24.37307 -21.10993,28.8421 -4.28043,1.3897 -6.63156,1.67938 -15.0824,1.85823 -5.50633,0.11655 -11.52028,-0.0289 -13.36432,-0.32334 z m -201.215422,-43.7673 0,-43.04943 25.529315,0.0132 c 14.041117,0.007 27.631724,0.31346 30.201342,0.6804 6.15669,0.87919 10.939715,3.29253 14.604865,7.36906 3.93318,4.37465 5.34663,8.63433 4.93845,14.88303 -0.48881,7.48319 -3.84749,12.65896 -10.444486,16.0951 -1.700558,0.88574 -2.641412,1.62467 -2.09078,1.64206 2.557696,0.0807 9.239476,4.04522 11.886826,7.05276 3.68668,4.18829 5.06167,8.79742 4.65787,15.6138 -0.36195,6.10981 -2.02135,10.15853 -5.87869,14.34324 -6.6049,7.16548 -13.846938,8.4062 -49.066349,8.4062 l -24.338363,0 z m 47.630842,23.44104 c 3.344621,-1.39747 5.096373,-4.04341 5.096373,-7.69785 0,-3.56589 -1.179582,-5.58714 -4.211969,-7.21743 -1.724719,-0.92723 -3.965091,-1.14816 -11.806432,-1.16419 l -9.677778,-0.0199 -0.186801,8.50978 -0.186802,8.50977 9.38545,0 c 6.466131,0 10.070533,-0.28626 11.587959,-0.92027 z m -2.028474,-33.81052 c 2.465857,-1.18101 3.787678,-3.85012 3.787678,-7.6484 0,-5.84497 -4.129184,-7.85103 -15.509345,-7.53488 l -6.849665,0.19031 -0.190697,7.29886 c -0.10493,4.01438 -0.02533,7.72972 0.176703,8.25631 0.300615,0.78337 1.851975,0.90138 8.533617,0.64913 4.863714,-0.18361 8.928713,-0.6735 10.051709,-1.21133 z m 49.414344,10.53634 16.11731,-42.88257 14.45014,-0.17969 14.45013,-0.17972 2.11925,5.51917 c 4.66183,12.14085 30.04419,79.9746 30.04419,80.29237 0,0.18705 -6.22146,0.25891 -13.82545,0.15969 l -13.82548,-0.18039 -1.95495,-6.84119 -1.95496,-6.84119 -15.23376,0 -15.23376,0 -1.73982,5.84004 c -0.95691,3.21203 -1.88783,6.36565 -2.06873,7.00805 -0.29942,1.06329 -1.54518,1.16801 -13.89517,1.16801 l -13.56625,0 z m 39.66246,9.34406 c -0.15682,-0.45885 -2.21627,-7.21307 -4.57659,-15.00937 -2.3603,-7.7963 -4.4658,-14.17861 -4.67892,-14.18295 -0.29721,-0.006 -7.33118,22.22925 -9.1292,28.85862 -0.29089,1.07248 0.45954,1.168 9.17652,1.168 7.30177,0 9.4275,-0.19261 9.20819,-0.8343 z m 126.28716,-9.51092 0,-43.04943 35.72651,0 35.72648,0 -0.18565,9.17721 -0.18577,9.17719 -22.19205,0.17587 -22.19219,0.17586 0,6.66532 0,6.66534 20.69041,0 20.69039,0 0,8.67663 0,8.67663 -20.69039,0 -20.69041,0 0,8.67662 0,8.67664 23.02644,0 23.02643,0 0,9.67777 0,9.67779 -36.3751,0 -36.3751,0 z m 117.98388,40.67673 c -8.01731,-1.94349 -14.22832,-6.10485 -18.9157,-12.6736 -6.23634,-8.73949 -8.66323,-18.30161 -8.10987,-31.9534 0.40429,-9.97428 1.6541,-15.0336 5.54101,-22.4303 4.53731,-8.63465 12.85128,-15.21252 21.97037,-17.38267 4.50106,-1.07113 15.17517,-1.0606 19.68895,0.0194 9.18044,2.19662 16.7338,8.19317 21.00596,16.67661 1.34191,2.66476 2.3455,4.91024 2.23021,4.98997 -0.1154,0.0797 -1.56122,0.5186 -3.21319,0.97529 -1.65186,0.45671 -3.53079,0.98217 -4.17534,1.16774 -0.89325,0.25715 -1.49761,-0.42233 -2.54128,-2.85734 -4.83228,-11.27305 -17.51155,-16.73335 -30.81183,-13.26907 -13.47986,3.51108 -20.82752,15.62832 -20.85453,34.39204 -0.0181,12.42839 2.52664,20.40286 8.70195,27.27131 12.70763,14.13388 38.5273,9.84718 43.72323,-7.25909 l 1.35542,-4.4625 4.35875,1.04289 c 4.34062,1.03857 4.35694,1.05129 3.95378,3.07093 -0.73936,3.70276 -4.13291,9.99201 -7.25547,13.44615 -3.63549,4.02153 -10.38904,7.79588 -16.54645,9.24732 -5.24727,1.23689 -14.97848,1.23123 -20.10597,-0.0117 z m 51.54411,-0.65292 c 0,-0.19576 0.74948,-1.83496 1.66558,-3.64267 2.11943,-4.18259 29.9582,-72.79454 31.08722,-76.61832 l 0.84472,-2.86092 5.6733,0.19119 c 5.65009,0.19041 5.67587,0.19935 6.32561,2.19349 1.31443,4.03384 29.68597,73.52556 31.39603,76.89948 0.9706,1.915 1.76466,3.64199 1.76466,3.83775 0,0.19573 -2.51955,0.3559 -5.59887,0.3559 l -5.59899,0 -0.45597,-2.50288 c -0.25084,-1.37658 -2.26263,-7.08763 -4.47077,-12.69121 l -4.01468,-10.18835 -19.38339,0.17684 -19.38327,0.17685 -3.56198,9.01035 c -1.95911,4.9557 -3.92046,10.58717 -4.35864,12.51437 l -0.79665,3.50403 -5.5669,0 c -3.06187,0 -5.56701,-0.16017 -5.56701,-0.3559 z m 55.39699,-33.20476 c 0,-0.47105 -3.28592,-9.28265 -7.30196,-19.58134 -4.01614,-10.29871 -7.50336,-19.52717 -7.74947,-20.50773 -0.72077,-2.87201 -1.33865,-2.602 -2.50875,1.09646 -0.60446,1.91067 -4.21744,11.49982 -8.02891,21.30923 -3.81136,9.80941 -6.77123,17.99381 -6.57747,18.18756 0.19376,0.19373 7.51046,0.35225 16.25936,0.35225 12.50025,0 15.9072,-0.18343 15.9072,-0.85643 z m 34.37279,-8.15383 0,-41.71456 6.10653,-4e-5 6.1064,-5e-5 1.28731,4.17146 c 1.33324,4.32042 28.95822,66.55331 29.54929,66.56809 0.57418,0.0143 28.16708,-62.17325 29.53645,-66.56809 l 1.29992,-4.17146 6.10641,0 6.10651,0 0,41.71458 0,41.71456 -4.9103,0 c -4.43428,0 -4.85862,-0.11322 -4.37776,-1.16801 0.29283,-0.64241 0.61876,-16.93611 0.72426,-36.20825 0.17721,-32.38135 0.11359,-34.79355 -0.83854,-31.78928 -0.56664,1.78802 -7.0054,16.44009 -14.30826,32.56016 -7.30297,16.12007 -13.79555,30.95085 -14.42805,32.95729 l -1.14995,3.64809 -3.82239,0 -3.82239,0 -1.65501,-4.83889 c -0.91036,-2.6614 -7.20591,-17.15304 -13.99031,-32.20365 -6.78441,-15.05061 -13.0177,-29.39921 -13.85172,-31.88575 -0.83393,-2.48655 -1.54851,-4.43879 -1.5878,-4.33832 -0.37896,0.96919 0.73203,71.80808 1.13598,72.43231 0.41466,0.6406 -0.59264,0.8343 -4.33824,0.83433 l -4.87834,5e-5 z m 104.11959,-0.18972 0,-41.90422 14.68352,0.19684 c 25.37451,0.34016 27.66539,0.49137 31.80122,2.09906 9.71443,3.77611 14.48029,11.96859 13.73114,23.60356 -0.19533,3.03351 -0.69217,6.62123 -1.10412,7.9727 -1.14724,3.76419 -4.78004,8.57159 -8.32108,11.01191 -5.60383,3.8618 -8.34213,4.35885 -25.98686,4.71718 l -15.90968,0.32311 0.22495,16.94242 0.22495,16.94244 -4.67208,-4e-4 -4.67196,-3.9e-4 z m 36.58037,-0.16002 c 7.00856,-1.01334 10.67096,-3.29424 13.37031,-8.32697 1.16064,-2.16363 1.43209,-3.80846 1.43209,-8.67664 0,-6.93992 -1.35553,-10.36247 -5.29365,-13.36626 -4.12368,-3.14525 -7.29914,-3.65328 -22.83504,-3.65328 l -14.24375,0 0,17.35327 0,17.35325 11.51321,-0.0132 c 6.33226,-0.007 13.55789,-0.30884 16.05683,-0.67016 z M 235.57683,410.78209 c -0.24474,-0.24472 -0.44496,-6.38407 -0.44496,-13.64299 0,-13.73902 0.38421,-15.59762 2.64673,-12.80351 1.07346,1.32566 1.12695,1.32783 2.6356,0.10616 2.1696,-1.75685 6.69771,-1.65687 9.05835,0.2 4.71871,3.71175 4.96508,13.47535 0.44171,17.50538 -0.81131,0.72284 -2.79532,1.39747 -4.6276,1.57352 -2.70603,0.26003 -3.51564,0.0485 -5.17937,-1.35312 l -1.97197,-1.66132 0.23061,3.62607 c 0.12683,1.99436 0.0461,4.36153 -0.17958,5.26041 -0.3917,1.56064 -1.66014,2.13876 -2.60952,1.18936 z m 12.28761,-11.5175 c 1.6505,-1.6505 1.95095,-2.47955 1.95095,-5.38334 0,-7.33012 -4.94104,-10.52007 -9.3954,-6.06569 -1.69623,1.69622 -1.95096,2.44364 -1.95096,5.72451 0,3.28087 0.25473,4.02829 1.95096,5.72452 1.17613,1.17613 2.65442,1.95097 3.72222,1.95097 1.0678,0 2.54609,-0.77484 3.72223,-1.95097 z m 240.66948,11.5175 c -0.24465,-0.24472 -0.44494,-6.38407 -0.44494,-13.64299 0,-13.73902 0.38426,-15.59762 2.64677,-12.80351 1.0735,1.32566 1.12699,1.32783 2.63563,0.10616 2.16951,-1.75685 6.6977,-1.65687 9.05829,0.2 4.71867,3.71175 4.96512,13.47535 0.44178,17.50538 -0.8114,0.72284 -2.79538,1.39747 -4.6276,1.57352 -2.70611,0.26003 -3.51571,0.0485 -5.17938,-1.35312 l -1.97205,-1.66132 0.23069,3.62607 c 0.12677,1.99436 0.0462,4.36153 -0.17958,5.26041 -0.39168,1.56064 -1.66018,2.13876 -2.60961,1.18936 z m 12.28769,-11.5175 c 1.6505,-1.6505 1.95099,-2.47955 1.95099,-5.38334 0,-7.33012 -4.94115,-10.52007 -9.39549,-6.06569 -1.6962,1.69622 -1.95098,2.44364 -1.95098,5.72451 0,3.28087 0.25478,4.02829 1.95098,5.72452 1.17619,1.17613 2.65444,1.95097 3.72231,1.95097 1.06775,0 2.54601,-0.77484 3.72219,-1.95097 z m 26.80445,5.91908 c -0.35397,-1.26475 -3.27657,-11.205 -6.49449,-22.08945 l -5.85096,-19.78991 -5.41975,-2.69396 c -14.28799,-7.10202 -23.12899,-21.17671 -23.33592,-37.15074 -0.10357,-8.01086 0.82593,-12.17886 4.38374,-19.65179 5.10609,-10.72494 15.78212,-19.31034 27.88224,-22.42209 6.76616,-1.74005 16.43703,-1.47792 23.02643,0.62413 13.68172,4.36453 24.36439,14.87776 28.55414,28.10108 1.94582,6.14113 2.05626,19.48379 0.20446,24.69503 -2.85066,8.02202 -5.31122,11.95957 -11.05521,17.69144 -5.38272,5.37141 -8.46654,7.41446 -15.42084,10.21631 l -2.3895,0.96271 -6.21169,20.93871 c -3.41651,11.5163 -6.44067,21.37282 -6.72045,21.90339 -0.36376,0.68994 -0.69184,0.30979 -1.1522,-1.33486 z m -318.18888,-2.34985 c -5.25423,-2.73964 -7.31591,-6.66682 -7.3317,-13.96578 -0.009,-4.26926 0.30228,-5.97678 1.55428,-8.51919 3.62005,-7.35129 13.56293,-9.208 19.83226,-3.70345 7.42191,6.5165 5.86736,22.10424 -2.58726,25.94276 -3.39889,1.54315 -8.75896,1.65797 -11.46758,0.24566 z m 11.30543,-4.34291 c 5.45293,-4.78772 4.80618,-17.02457 -1.08976,-20.61923 -4.45268,-2.71472 -10.02709,-0.96212 -12.65222,3.9779 -1.49414,2.81171 -1.66773,9.69852 -0.32542,12.9111 2.46102,5.89005 9.48592,7.75284 14.0674,3.73023 z m 41.95327,4.08652 c -2.85173,-1.73879 -4.29928,-4.74565 -4.29885,-8.92954 4.3e-4,-4.22599 0.74979,-6.28112 3.08139,-8.45073 1.50135,-1.39704 2.44805,-1.66859 5.81716,-1.66859 3.74852,0 4.15182,0.15315 5.89159,2.2371 1.85653,2.22381 3.0924,6.19803 2.31737,7.45204 -0.22418,0.36272 -3.55333,0.65608 -7.44554,0.65608 -6.14541,0 -6.98858,0.13416 -6.63494,1.05574 0.22282,0.58065 0.40513,1.49534 0.40513,2.03262 0,0.53731 0.7372,1.71412 1.63825,2.61515 2.37718,2.37719 5.40062,2.19367 8.17591,-0.49623 2.39859,-2.32481 4.06413,-1.92058 3.20749,0.77848 -1.1544,3.6372 -8.10009,5.19029 -12.15496,2.71788 z m 9.81224,-12.28451 c 0,-0.50113 -0.62249,-1.70252 -1.38332,-2.66974 -1.03837,-1.32008 -1.98459,-1.75859 -3.79472,-1.75859 -2.68721,0 -5.50089,2.10785 -5.50089,4.12094 0,1.07819 0.61489,1.21852 5.33947,1.21852 4.06679,0 5.33946,-0.21717 5.33946,-0.91113 z m 10.13693,13.00246 c -0.61529,-0.38027 -0.78269,-3.0119 -0.64504,-10.14018 0.15504,-8.02942 0.35198,-9.62663 1.18703,-9.62663 0.55063,0 1.28226,0.64009 1.62583,1.42239 0.62036,1.41252 0.63214,1.41321 1.69492,0.10077 0.6829,-0.84334 2.20339,-1.44941 4.20114,-1.67459 6.05444,-0.68243 7.81883,2.23017 7.82535,12.91784 0.002,4.14824 -0.26961,6.31889 -0.85295,6.80301 -1.78485,1.48132 -2.35409,-0.23209 -2.58388,-7.7776 -0.19975,-6.5596 -0.40228,-7.68904 -1.5259,-8.5096 -2.02385,-1.478 -4.30481,-1.12162 -6.43125,1.00481 -1.88118,1.88117 -1.95096,2.17663 -1.95096,8.26119 0,6.38205 -0.69722,8.36019 -2.54429,7.21864 z m 26.75189,-0.39962 c -2.42835,-1.05567 -4.96639,-4.66866 -4.69676,-6.68596 0.27719,-2.07366 2.2598,-1.57677 3.99465,1.00116 0.9531,1.41625 2.51013,2.64534 3.95461,3.12165 4.64545,1.53183 9.91616,-1.01431 9.91616,-4.79023 0,-2.82861 -2.03526,-4.28505 -8.32082,-5.95447 -7.20967,-1.91485 -9.03245,-3.53889 -9.03245,-8.04764 0,-6.72735 7.83007,-10.37858 15.13984,-7.05983 2.88865,1.31149 5.29753,4.66958 4.61868,6.43865 -0.59787,1.55802 -1.81325,1.0813 -4.40756,-1.72883 -2.20298,-2.38626 -2.79769,-2.66973 -5.60099,-2.66973 -2.43999,0 -3.50003,0.36372 -4.77456,1.63824 -3.66434,3.66435 -1.48648,6.48487 6.68259,8.65454 7.35076,1.95232 9.03243,3.50556 9.03243,8.34255 0,3.59955 -1.51462,6.09552 -4.69782,7.74161 -2.40007,1.24113 -8.95129,1.24017 -11.808,-0.002 z m 26.56576,-0.76907 c -1.19607,-1.52056 -1.38331,-2.68899 -1.38331,-8.6323 l 0,-6.8737 -1.82973,-0.21119 c -2.7017,-0.31183 -2.92976,-2.5472 -0.25988,-2.5472 1.89092,0 2.02528,-0.17184 2.21809,-2.83659 0.1681,-2.32323 0.44683,-2.8366 1.54009,-2.8366 1.09329,0 1.37202,0.51337 1.54011,2.8366 0.2026,2.80009 0.23766,2.83659 2.72536,2.83659 1.38604,0 2.7177,0.19762 2.95931,0.43916 0.88413,0.88416 -1.10897,2.23056 -3.30191,2.23056 l -2.25428,0 0,6.54084 c 0,3.93084 0.29775,6.8386 0.74618,7.28703 0.4211,0.4211 1.72955,0.58659 3.00346,0.37988 1.77468,-0.288 2.25722,-0.13862 2.25722,0.69868 0,1.36394 -2.02676,2.44683 -4.57964,2.44683 -1.36325,0 -2.43712,-0.55856 -3.38107,-1.75859 z m 14.80197,1.29248 c -1.07204,-0.40162 -1.2023,-19.25064 -0.13769,-19.90866 1.06539,-0.65844 2.61794,0.96818 2.13417,2.23602 -0.28653,0.75107 0.29216,0.51549 1.75949,-0.71622 1.47081,-1.23465 2.9495,-1.83546 4.51771,-1.83546 2.03577,0 2.30417,0.19031 2.11796,1.50173 -0.17102,1.204 -0.70603,1.54258 -2.69857,1.70783 -4.03652,0.33472 -5.19018,2.43189 -5.19018,9.43412 0,5.8268 -0.79091,8.22204 -2.50289,7.58064 z m 19.38789,-0.84174 c -2.85168,-1.73879 -4.29919,-4.74565 -4.29885,-8.92954 4.5e-4,-4.22599 0.74982,-6.28112 3.08146,-8.45073 1.50133,-1.39704 2.44807,-1.66859 5.81718,-1.66859 3.74842,0 4.15181,0.15315 5.8916,2.2371 1.85642,2.22381 3.09239,6.19803 2.31734,7.45204 -0.22416,0.36272 -3.5533,0.65608 -7.44561,0.65608 -6.14536,0 -6.98852,0.13416 -6.63488,1.05574 0.2228,0.58065 0.40508,1.49534 0.40508,2.03262 0,0.53731 0.73721,1.71412 1.63823,2.61515 2.37724,2.37719 5.40073,2.19367 8.17596,-0.49623 2.39863,-2.32481 4.0641,-1.92058 3.20744,0.77848 -1.15433,3.6372 -8.10007,5.19029 -12.15495,2.71788 z m 9.81227,-12.28451 c 0,-0.50113 -0.62248,-1.70252 -1.38334,-2.66974 -1.03837,-1.32008 -1.98454,-1.75859 -3.79469,-1.75859 -2.68718,0 -5.50092,2.10785 -5.50092,4.12094 0,1.07819 0.61494,1.21852 5.33948,1.21852 4.06681,0 5.33947,-0.21717 5.33947,-0.91113 z m 12.21305,12.28451 c -2.85168,-1.73879 -4.2993,-4.74565 -4.29885,-8.92954 4.5e-4,-4.22599 0.74982,-6.28112 3.08146,-8.45073 1.50133,-1.39704 2.44794,-1.66859 5.81707,-1.66859 3.74853,0 4.15181,0.15315 5.8916,2.2371 1.85653,2.22381 3.09238,6.19803 2.31745,7.45204 -0.22427,0.36272 -3.55342,0.65608 -7.44561,0.65608 -6.14537,0 -6.98852,0.13416 -6.63488,1.05574 0.2228,0.58065 0.40508,1.49534 0.40508,2.03262 0,0.53731 0.73721,1.71412 1.63823,2.61515 2.37724,2.37719 5.4006,2.19367 8.17596,-0.49623 2.39851,-2.32481 4.0641,-1.92058 3.20744,0.77848 -1.15433,3.6372 -8.10008,5.19029 -12.15495,2.71788 z m 9.81227,-12.28451 c 0,-0.50113 -0.62248,-1.70252 -1.38334,-2.66974 -1.03837,-1.32008 -1.98454,-1.75859 -3.79469,-1.75859 -2.68719,0 -5.50092,2.10785 -5.50092,4.12094 0,1.07819 0.61494,1.21852 5.33948,1.21852 4.0668,0 5.33947,-0.21717 5.33947,-0.91113 z m 12.7297,11.83377 c -1.19611,-1.52056 -1.38333,-2.68899 -1.38333,-8.6323 l 0,-6.8737 -1.82974,-0.21119 c -2.70171,-0.31183 -2.92981,-2.5472 -0.25985,-2.5472 1.89087,0 2.0253,-0.17184 2.21805,-2.83659 0.16809,-2.32323 0.44684,-2.8366 1.54005,-2.8366 1.09332,0 1.37207,0.51337 1.54017,2.8366 0.20255,2.80009 0.23766,2.83659 2.72535,2.83659 1.38605,0 2.7177,0.19762 2.95931,0.43916 0.88414,0.88416 -1.10897,2.23056 -3.3019,2.23056 l -2.2543,0 0,6.54084 c 0,3.93084 0.29779,6.8386 0.74622,7.28703 0.42107,0.4211 1.72954,0.58659 3.00344,0.37988 1.77468,-0.288 2.25723,-0.13862 2.25723,0.69868 0,1.36394 -2.02688,2.44683 -4.57975,2.44683 -1.36319,0 -2.43703,-0.55856 -3.38095,-1.75859 z m 14.72775,1.14846 c -0.57463,-0.3551 -0.73856,-4.35206 -0.60694,-14.78863 l 0.18047,-14.30201 1.79371,-0.20716 c 1.28449,-0.14834 2.07575,0.2306 2.78729,1.33487 0.79721,1.23734 7.28303,17.07943 9.37475,22.89869 0.35746,0.99449 1.6593,-1.70703 5.11893,-10.62281 2.55175,-6.57606 4.98472,-12.37234 5.40658,-12.88063 0.42185,-0.50829 1.54354,-0.83389 2.49264,-0.72355 l 1.72571,0.20059 0.18059,14.30201 c 0.18475,14.64121 0,15.80958 -2.37995,14.89706 -0.83752,-0.3214 -0.93693,-2.2925 -0.66144,-13.12006 0.17834,-7.00802 0.18352,-12.29132 0.0113,-11.74069 -0.75838,2.42711 -5.48619,14.80323 -7.43605,19.46588 -3.6284,8.67615 -4.87348,8.04986 -9.96472,-5.01203 -2.16851,-5.56355 -4.30425,-11.24183 -4.74615,-12.61842 -0.44189,-1.37657 -0.85519,-2.50323 -0.91847,-2.50367 -0.0631,-4.4e-4 -0.0226,5.66715 0.0912,12.59464 0.16911,10.31934 0.0371,12.66023 -0.72797,12.954 -0.51384,0.1972 -1.28865,0.13957 -1.72177,-0.12808 z m 37.67279,-0.84138 c -1.391,-1.19646 -1.85755,-2.20049 -1.85755,-3.99693 0,-4.73801 2.31408,-6.61583 9.31059,-7.55507 3.02608,-0.40625 3.50412,-0.67125 3.50412,-1.94287 0,-2.09858 -1.24881,-3.07431 -3.93476,-3.07431 -1.60974,0 -2.90076,0.5441 -4.16498,1.75528 -1.09569,1.04974 -2.25059,1.59471 -2.87307,1.35581 -1.53049,-0.58728 -1.28055,-1.63945 0.90991,-3.82986 1.68519,-1.68517 2.45302,-1.95097 5.63592,-1.95097 2.93262,0 4.06726,0.32871 5.55666,1.60991 1.82996,1.57406 1.87702,1.79095 2.11165,9.73916 0.26413,8.94435 -0.33539,10.89614 -2.52428,8.2193 -1.08195,-1.32318 -1.28583,-1.36028 -2.23876,-0.40738 -0.57667,0.5766 -2.51753,1.18955 -4.31315,1.36208 -2.74822,0.26407 -3.5586,0.061 -5.1223,-1.28415 z m 8.90359,-2.94613 c 1.55402,-1.30763 2.05357,-2.28169 2.05357,-4.00459 0,-1.91716 -0.23722,-2.27611 -1.50178,-2.27297 -2.97992,0.008 -6.54167,1.43031 -7.59164,3.03283 -0.98546,1.50387 -0.98366,1.76975 0.0213,3.30406 1.4581,2.22534 4.33195,2.20106 7.01824,-0.0594 z"
     id="path3130"
     style="fill:#000000" />
</svg>
