<?xml version="1.0" encoding="UTF-8" standalone="no"?>
<!-- Created with Inkscape (http://www.inkscape.org/) -->

<svg
   xmlns:dc="http://purl.org/dc/elements/1.1/"
   xmlns:cc="http://creativecommons.org/ns#"
   xmlns:rdf="http://www.w3.org/1999/02/22-rdf-syntax-ns#"
   xmlns:svg="http://www.w3.org/2000/svg"
   xmlns="http://www.w3.org/2000/svg"
   xmlns:sodipodi="http://sodipodi.sourceforge.net/DTD/sodipodi-0.dtd"
   xmlns:inkscape="http://www.inkscape.org/namespaces/inkscape"
   width="297mm"
   height="210mm"
   viewBox="0 0 1052.3622 744.09448"
   id="svg2"
   version="1.1"
   inkscape:version="0.91 r13725"
   sodipodi:docname="ITxSaigai_logo.svg">
  <defs
     id="defs4" />
  <sodipodi:namedview
     id="base"
     pagecolor="#ffffff"
     bordercolor="#666666"
     borderopacity="1.0"
     inkscape:pageopacity="0.0"
     inkscape:pageshadow="2"
     inkscape:zoom="0.64578737"
     inkscape:cx="550.86069"
     inkscape:cy="467.74166"
     inkscape:document-units="px"
     inkscape:current-layer="layer1"
     showgrid="false"
     inkscape:window-width="1440"
     inkscape:window-height="852"
     inkscape:window-x="0"
     inkscape:window-y="0"
     inkscape:window-maximized="1" />
  <metadata
     id="metadata7">
    <rdf:RDF>
      <cc:Work
         rdf:about="">
        <dc:format>image/svg+xml</dc:format>
        <dc:type
           rdf:resource="http://purl.org/dc/dcmitype/StillImage" />
        <dc:title></dc:title>
      </cc:Work>
    </rdf:RDF>
  </metadata>
  <g
     inkscape:label="Layer 1"
     inkscape:groupmode="layer"
     id="layer1"
     transform="translate(0,-308.26772)">
    <path
       style="fill:#000000"
       d="m 138.76249,834.10299 c -1.19326,-2.13497 -1.16722,-2.56415 0.15557,-2.56415 0.43395,0 2.13305,-0.41513 3.77577,-0.92252 6.09419,-1.8823 9.59028,-6.231 10.17884,-12.6612 0.29988,-3.2763 0.31656,-3.31032 1.62328,-3.31032 1.16866,0 1.26542,-0.10251 0.84256,-0.89264 -0.26275,-0.49094 -1.62526,-2.1321 -3.0278,-3.64701 l -2.55008,-2.75439 1.91613,-2.17458 c 1.05387,-1.19601 2.20896,-2.73961 2.56687,-3.43021 0.3579,-0.6906 0.923,-1.25564 1.25577,-1.25564 0.60334,0 3.5427,0.90899 3.89452,1.20438 0.10195,0.0856 -0.79853,1.40795 -2.00106,2.93858 l -2.18643,2.78296 2.43091,2.46149 c 1.33701,1.35382 2.34022,2.54352 2.22937,2.64378 -0.11085,0.10026 -1.02341,0.60993 -2.02793,1.1326 -1.04018,0.54124 -1.48242,0.95901 -1.02734,0.9705 0.67436,0.017 0.79905,0.46932 0.79905,2.8984 0,6.29906 4.3675,10.97 12.45598,13.32139 1.43642,0.41758 2.61168,0.84189 2.61168,0.94292 0,0.10102 -0.45224,1.11452 -1.00497,2.25222 -1.1732,2.41479 -1.08995,2.41762 -6.55342,-0.22253 -4.01812,-1.94171 -7.35393,-4.60472 -8.89836,-7.10366 l -0.99064,-1.60288 -0.85783,1.73024 c -2.06084,4.1567 -7.31326,7.78701 -13.03291,9.00795 -1.33496,0.28496 -1.50813,0.16768 -2.57753,-1.74568 z m 41.67779,-3.93393 0,-5.93575 13.24127,0 13.24128,0 0,5.93575 0,5.93574 -2.09743,0 c -1.71343,0 -2.14114,-0.16719 -2.33623,-0.91319 -0.2281,-0.87227 -0.62281,-0.91319 -8.80762,-0.91319 -8.18481,0 -8.57951,0.0409 -8.80762,0.91319 -0.19508,0.746 -0.6228,0.91319 -2.33623,0.91319 l -2.09742,0 0,-5.93574 z m 21.91659,-0.91319 0,-1.36979 -8.67532,0 -8.67532,0 0,1.36979 0,1.36978 8.67532,0 8.67532,0 0,-1.36978 z m 51.13873,-10.73001 0,-17.12234 7.53383,0 7.53383,0 0,6.16405 0,6.16404 -1.15513,0 -1.15512,0 1.04098,1.82287 c 0.90731,1.58881 1.24996,1.82331 2.66864,1.82638 1.41505,0.003 1.72817,-0.20726 2.39713,-1.61006 0.9799,-2.05488 0.98276,-2.03919 -0.37203,-2.03919 l -1.14149,0 0,-6.14323 0,-6.14322 7.76271,-0.13497 7.76272,-0.13497 -0.0461,15.52426 c -0.0253,8.53834 -0.18837,16.03793 -0.36227,16.66575 -0.384,1.38638 -3.01827,2.39085 -5.74373,2.19015 -1.51,-0.11121 -1.86563,-0.31949 -1.9854,-1.16281 -0.0849,-0.59763 -0.46684,-1.02914 -0.91319,-1.03163 -1.07803,-0.006 -5.117,-2.40557 -6.43579,-3.8235 l -1.10253,-1.18542 -1.01419,1.47927 c -0.96718,1.41068 -4.88424,4.06434 -6.82584,4.62423 -0.71283,0.20555 -1.14025,-0.1333 -1.94807,-1.54438 l -1.03488,-1.80771 1.26318,-0.2929 c 1.97709,-0.45844 4.93657,-2.31121 5.80232,-3.6325 l 0.78763,-1.20208 -3.57658,0.15164 -3.57658,0.15163 -0.14171,-1.70784 -0.14171,-1.70786 4.13692,0 c 4.10833,0 4.13693,-0.008 4.13693,-1.14149 0,-1.12246 -0.0609,-1.14148 -3.65277,-1.14148 l -3.65277,0 0,-1.59809 c 0,-1.56004 0.0435,-1.59808 1.82639,-1.59808 1.92349,0 2.27857,-0.4261 1.14149,-1.36979 -1.05208,-0.87315 -0.83522,-1.23915 1.02734,-1.73384 1.51809,-0.4032 1.25924,-0.46011 -2.28298,-0.50195 l -3.99521,-0.0472 0,10.9583 0,10.9583 -2.28298,0 -2.28298,0 0,-17.12235 z m 28.30894,4.10937 0,-8.90362 -4.22352,0.036 c -4.234,0.0361 -4.42128,0.0946 -2.01316,0.62803 0.89864,0.19907 1.21426,0.49189 1.02734,0.95313 -0.1484,0.36617 -0.39453,0.97398 -0.54696,1.35067 -0.21958,0.54261 0.11243,0.68489 1.59808,0.68489 1.83873,0 1.87524,0.0311 1.87524,1.59809 l 0,1.59808 -3.83222,0 c -3.82236,3e-5 -4.38651,0.23972 -4.38651,1.86375 0,0.23059 1.95195,0.41925 4.33766,0.41925 l 4.33766,0 0,1.71562 0,1.71562 -3.76691,-0.16932 -3.76692,-0.16933 0.84907,0.94206 c 0.46698,0.51814 1.94598,1.39671 3.28666,1.95239 2.11047,0.87475 2.37735,1.12292 1.9886,1.84931 -0.40129,0.74981 -0.2532,0.83897 1.39344,0.83897 l 1.84245,0 0,-8.90361 z M 264.4539,809.62225 c 0,-0.82622 -0.3044,-0.91319 -3.19617,-0.91319 -2.89178,0 -3.19617,0.087 -3.19617,0.91319 0,0.82622 0.30439,0.91319 3.19617,0.91319 2.89177,0 3.19617,-0.087 3.19617,-0.91319 z m 17.35064,0 c 0,-0.83202 -0.3044,-0.91319 -3.42447,-0.91319 -3.12007,0 -3.42447,0.0812 -3.42447,0.91319 0,0.83201 0.3044,0.91319 3.42447,0.91319 3.12007,0 3.42447,-0.0812 3.42447,-0.91319 z m -17.35064,-4.33766 c 0,-0.54357 -0.65953,-0.6849 -3.19617,-0.6849 -2.53665,0 -3.19617,0.14133 -3.19617,0.6849 0,0.54356 0.65952,0.68489 3.19617,0.68489 2.53664,0 3.19617,-0.14133 3.19617,-0.68489 z m 17.35064,0 c 0,-0.54792 -0.6849,-0.6849 -3.42447,-0.6849 -2.73958,0 -3.42447,0.13698 -3.42447,0.6849 0,0.54791 0.68489,0.68489 3.42447,0.68489 2.73957,0 3.42447,-0.13698 3.42447,-0.68489 z m 86.01419,28.35143 -1.42388,-1.95566 2.40853,-1.4406 c 3.24346,-1.94001 7.95731,-7.12798 9.70834,-10.68482 1.9132,-3.88626 2.78108,-7.74802 3.13494,-13.94931 l 0.29434,-5.1581 2.23537,0.13555 2.23538,0.13555 0.16253,5.02255 c 0.33617,10.3888 4.85065,18.65729 13.14611,24.07771 1.19286,0.77943 2.16883,1.5256 2.16883,1.65816 0,0.13255 -0.55747,1.07393 -1.23882,2.09193 -0.68135,1.01801 -1.29134,1.93013 -1.35553,2.02693 -0.24352,0.3672 -2.7718,-1.58288 -5.8047,-4.47719 -3.68422,-3.51588 -6.99494,-8.33421 -8.23649,-11.98715 l -0.88044,-2.59046 -0.84996,2.51768 c -1.87063,5.54099 -5.82037,10.77915 -11.02057,14.6155 -1.4716,1.08565 -2.80715,1.9612 -2.96787,1.94565 -0.16072,-0.0155 -0.93297,-0.9083 -1.71611,-1.98392 z m 310.50206,0.29995 c -0.70786,-0.94173 -2.51466,-2.90572 -4.01503,-4.36442 l -2.72798,-2.65219 1.6032,-1.60321 1.6032,-1.60322 2.3043,1.97242 c 1.26738,1.08484 3.24311,3.01903 4.39049,4.29821 l 2.08619,2.32579 -1.70968,1.66942 c -0.94031,0.91819 -1.83067,1.66944 -1.97866,1.66944 -0.14793,0 -0.84817,-0.77051 -1.55603,-1.71224 z m 222.04129,0.2283 c -0.13707,-0.81616 -0.37637,-1.80438 -0.5318,-2.19604 -0.24656,-0.62122 0.23579,-0.68732 3.77929,-0.51791 3.8481,0.18398 4.10133,0.138 4.80973,-0.87342 0.41131,-0.5872 0.74782,-1.63831 0.74782,-2.33582 l 0,-1.26819 -6.56526,0 -6.56525,0 -0.57504,1.3883 c -0.55412,1.33783 -0.6516,1.37721 -2.68081,1.08299 -1.1582,-0.16793 -2.15883,-0.34916 -2.22366,-0.40275 -0.0648,-0.0536 0.60293,-1.65753 1.48393,-3.56433 0.881,-1.90681 1.60183,-3.66682 1.60183,-3.91114 0,-0.24433 -1.66,0.25588 -3.68893,1.11156 -2.02888,0.85568 -3.92946,1.54709 -4.22351,1.53646 -0.49901,-0.018 -2.78222,-3.14702 -2.49283,-3.4163 0.0725,-0.0675 1.73064,-0.67225 3.68473,-1.34389 1.95405,-0.67163 5.1388,-1.97705 7.07723,-2.90092 l 3.52437,-1.67977 -6.73478,-0.12636 -6.73479,-0.12635 0,-2.04248 0,-2.04247 6.62064,0 6.62064,0 0,-1.36979 0,-1.36979 -4.79426,0 -4.79425,0 0,-2.05468 0,-2.05468 4.82923,0 4.82923,0 -0.14913,-1.71223 -0.14912,-1.71224 2.45963,-0.14018 2.45964,-0.14018 -0.29619,1.85242 -0.2962,1.85241 3.65816,0 c 3.59765,0 3.65815,0.0189 3.65815,1.14149 0,1.73635 0.68754,1.38642 2.64396,-1.34567 l 1.781,-2.48715 1.78273,1.18776 c 0.9805,0.65326 1.87438,1.26483 1.98633,1.35902 0.11201,0.0942 -1.32116,1.70626 -3.18475,3.58238 l -3.38831,3.41111 4.21205,0 4.2121,0 0,2.05468 0,2.05468 -6.89428,0 -6.89423,0 -2.70117,1.66726 c -1.48568,0.91699 -2.64671,1.71016 -2.58014,1.7626 0.29378,0.23134 8.15983,-0.80055 10.85109,-1.42348 l 2.96788,-0.68695 1.25563,1.49187 c 0.69061,0.82053 1.25564,1.6374 1.25564,1.81528 0,0.48873 -2.23435,0.90576 -10.46449,1.95318 -4.86639,0.61933 -7.56305,1.15432 -7.68601,1.52482 -0.14689,0.44253 1.6653,0.57074 8.06736,0.57074 4.77074,0 8.25676,0.17883 8.25676,0.42356 0,0.23295 -0.22323,2.02855 -0.49609,3.99022 -0.97132,6.98356 -2.00409,7.91431 -8.78171,7.91431 l -4.30058,0 -0.24921,-1.48394 z m 5.45034,-24.99862 1.56009,-1.36979 -2.98376,0 -2.98376,0 0,1.36979 c 0,1.22911 0.1462,1.36979 1.42366,1.36979 0.93077,0 1.96378,-0.47425 2.98377,-1.36979 z m -608.5816,19.7484 0.13033,-5.82223 -2.35288,2.4195 c -1.29409,1.33073 -2.40619,2.35807 -2.47134,2.28298 -0.0651,-0.0751 -0.5745,-1.0405 -1.13189,-2.14537 l -1.01345,-2.00885 3.4686,-3.1648 3.4686,-3.1648 0,-2.71534 0,-2.71535 -2.96787,0.30407 -2.96787,0.30407 0,-2.34065 c 0,-1.9503 0.13325,-2.32948 0.79904,-2.27369 0.43947,0.0368 1.87775,0.0344 3.19617,-0.005 l 2.39713,-0.0723 0,-3.19617 0,-3.19617 2.41876,0 2.41877,0 -0.18182,2.85545 c -0.15545,2.44127 -0.0453,2.97897 0.75922,3.70708 l 0.94104,0.85162 -1.12331,1.47273 c -0.61781,0.81 -1.1233,1.92963 -1.1233,2.48806 l 0,1.01533 1.34069,-0.95466 c 0.73738,-0.52505 2.69398,-1.58793 4.348,-2.36194 2.7074,-1.26695 3.35918,-1.39069 6.53559,-1.2408 3.0849,0.14557 3.79509,0.35123 5.65158,1.63658 3.02756,2.09615 4.50055,5.19976 4.4873,9.45478 -0.0172,5.50665 -2.95806,9.84707 -7.75061,11.4389 -2.54415,0.84503 -9.65907,0.82305 -10.46669,-0.0323 -0.22006,-0.23308 -0.541,-1.48756 -0.71319,-2.78774 l -0.31307,-2.36396 2.16553,0.65173 c 6.79738,2.04571 12.16007,-0.9444 12.21515,-6.81088 0.0413,-4.39423 -2.28473,-6.79481 -6.55165,-6.76176 -2.51707,0.0195 -5.2023,1.17496 -8.43735,3.63061 l -2.28298,1.73295 0,7.85532 0,7.85531 -2.51128,2e-4 -2.51128,1.9e-4 0.13033,-5.82224 z m 274.17903,4.92429 c -4.90489,-2.22654 -5.07712,-8.86433 -0.29167,-11.23966 1.24532,-0.61812 2.72916,-0.87665 5.03168,-0.87665 l 3.26558,0 -0.24278,-2.3522 c -0.1335,-1.29371 -0.10405,-3.09156 0.0655,-3.99521 0.30386,-1.61985 0.33962,-1.64301 2.53753,-1.64301 l 2.22928,0 -0.25427,2.46373 c -0.13986,1.35506 -0.11566,3.38813 0.0537,4.51793 0.29112,1.9413 0.46919,2.14842 3.23991,3.7688 1.61251,0.94304 3.38885,2.20106 3.94741,2.7956 l 1.01551,1.08099 -1.02583,2.11149 -1.02584,2.1115 -1.45841,-1.36215 c -0.8021,-0.74918 -2.12614,-1.81967 -2.9423,-2.37887 l -1.48394,-1.01674 0,1.05844 c -0.005,3.16994 -3.75632,5.83263 -8.21703,5.83263 -1.50138,0 -3.28786,-0.35252 -4.44236,-0.87662 z m 7.29608,-4.48627 c 1.00186,-0.87057 1.05113,-3.09794 0.0768,-3.47182 -1.38029,-0.52967 -4.55984,-0.27285 -5.59458,0.45189 -0.72744,0.50954 -0.99862,1.09381 -0.90063,1.94053 0.2482,2.14453 4.3909,2.84122 6.41841,1.0794 z m 65.90024,3.17158 -1.12058,-2.21136 3.54209,-0.76117 c 5.59229,-1.20172 9.19963,-4.0071 10.54325,-8.1994 0.87598,-2.73313 0.68581,-8.13869 -0.37034,-10.52631 -0.98424,-2.22505 -2.06021,-3.03117 -4.03955,-3.02654 -3.69591,0.009 -7.89121,6.09668 -8.64993,12.55256 -0.32273,2.74576 -0.90256,3.20451 -3.653,2.89019 -1.30778,-0.14946 -1.31111,-0.15818 -1.45325,-3.80256 -0.13821,-3.54511 0.57239,-14.36358 1.12496,-17.12646 0.26314,-1.31575 0.36395,-1.36567 2.75811,-1.36567 2.15436,0 2.45279,0.10631 2.24321,0.79904 -0.33651,1.11221 -1.18194,6.5458 -1.1861,7.62322 -0.005,0.59569 0.44587,0.17991 1.36016,-1.26179 0.75708,-1.19375 2.33115,-2.77162 3.53861,-3.54717 1.93789,-1.24467 2.48009,-1.3789 4.97393,-1.23134 2.19636,0.12996 3.15613,0.4381 4.45843,1.43142 2.28097,1.73977 3.91992,5.16726 4.33688,9.06965 0.89922,8.41563 -2.10102,14.79817 -8.62537,18.34917 -1.9445,1.05832 -6.67858,2.55588 -8.07969,2.55588 -0.31966,0 -1.08551,-0.99511 -1.70182,-2.21136 z m 92.88094,-3.14579 0,-5.35716 -2.09294,2.39257 c -1.15117,1.31592 -2.25075,2.29507 -2.44357,2.1759 -0.19282,-0.11917 -0.69507,-1.11864 -1.11606,-2.22105 l -0.76548,-2.00439 3.29854,-3.21479 3.29859,-3.21479 0.1856,-2.91461 0.18556,-2.91462 -3.01467,0.25297 -3.01472,0.25297 0,-1.45696 c 0,-0.80133 -0.1247,-1.78197 -0.27715,-2.1792 -0.22912,-0.59704 0.1073,-0.72332 1.94053,-0.72847 4.13356,-0.0116 4.27236,-0.13095 4.27236,-3.67284 0,-1.71379 0.1842,-3.22982 0.40934,-3.36896 0.22515,-0.13914 1.38089,-0.11982 2.56835,0.0429 l 2.15902,0.29593 -0.25428,2.78383 c -0.21999,2.40869 -0.1247,2.92229 0.7074,3.81118 l 0.96168,1.02734 -1.0277,1.09394 c -0.6506,0.69254 -0.97301,1.52359 -0.87863,2.26489 0.14803,1.16279 0.16981,1.15471 3.11695,-1.15621 3.78587,-2.96856 6.9872,-4.47545 9.52002,-4.48114 1.65311,-0.004 2.24655,0.25588 3.53862,1.54797 1.36431,1.36432 1.55243,1.83787 1.55243,3.90825 0,1.2957 -0.51367,4.63135 -1.14149,7.41255 -1.33532,5.91532 -1.44316,8.04307 -0.42747,8.43283 1.30737,0.5017 2.76414,-0.63954 4.11416,-3.22309 1.29034,-2.46939 2.02075,-3.18502 2.02075,-1.97981 0,0.3184 0.50167,1.31716 1.11483,2.21948 1.04706,1.54091 1.07058,1.70686 0.38756,2.73142 -1.22701,1.8406 -3.49305,4.1031 -4.79001,4.78256 -2.86071,1.49869 -6.81931,0.3325 -7.93495,-2.33759 -0.89493,-2.14188 -0.81749,-3.7052 0.49618,-10.01929 0.62586,-3.00794 1.13788,-6.14133 1.13788,-6.96308 0,-1.39357 -0.10401,-1.4941 -1.54603,-1.4941 -1.89953,0 -5.92597,2.5976 -9.18397,5.92488 l -2.28298,2.33152 0.13356,7.2867 0.1336,7.28669 -2.53073,0 -2.53068,0 0,-5.35716 z m 186.96131,3.19647 c -0.9226,-1.10375 -1.60494,-2.06353 -1.51631,-2.13284 1.49772,-1.17096 13.09667,-11.77095 14.77224,-13.49998 l 2.28298,-2.3558 -2.73957,0.28143 c -6.82104,0.70068 -10.31756,0.9511 -10.51554,0.75312 -0.11794,-0.11796 -0.21446,-1.17549 -0.21446,-2.35008 l 0,-2.13561 7.64797,-0.30686 c 4.20639,-0.16878 8.5183,-0.48093 9.58199,-0.69367 1.86135,-0.37226 1.98053,-0.32581 3.17192,1.23616 l 1.23788,1.62296 -4.54171,4.24747 -4.54167,4.24747 1.63265,0.003 c 2.32868,0.004 3.59172,1.5102 4.04069,4.81854 0.5433,4.00382 1.86834,4.54384 7.74811,3.15786 1.60585,-0.37853 2.99066,-0.61731 3.07732,-0.53061 0.0867,0.0867 0.21113,1.16165 0.27647,2.38877 l 0.1188,2.23114 -1.82638,0.33772 c -2.80857,0.51933 -9.44313,0.50847 -10.82027,-0.0177 -1.78292,-0.68123 -2.69825,-2.37921 -2.98454,-5.53641 -0.29838,-3.29071 -0.942,-3.85439 -3.57186,-3.12826 -1.28632,0.35517 -2.93974,1.66974 -6.19682,4.92681 l -4.44236,4.44239 -1.67753,-2.00682 z m -584.07604,0.83282 c -6.25185,-2.92025 -4.21691,-10.67408 2.80134,-10.67408 3.38529,0 5.87777,1.41274 7.49818,4.24998 l 1.30231,2.28025 1.55032,-1.04477 c 5.32783,-3.59042 2.18097,-9.47411 -5.05701,-9.45507 -4.10203,0.0108 -10.21554,2.27866 -13.84158,5.13468 -1.86235,1.46687 -1.92148,1.44772 -3.45481,-1.11897 l -1.00509,-1.68243 2.74067,-1.86116 c 3.54216,-2.40543 7.69814,-5.8212 11.57797,-9.51583 l 3.09439,-2.94668 -3.32269,0.27863 c -1.82748,0.15326 -4.65824,0.3194 -6.29057,0.36921 l -2.96787,0.0906 -0.13387,-2.25493 -0.13387,-2.25494 6.98281,-0.0937 c 3.84054,-0.0515 8.13698,-0.22263 9.54763,-0.38025 l 2.56483,-0.28658 1.03168,1.66931 c 0.56743,0.91811 0.85154,1.82034 0.63135,2.00494 -0.22019,0.18461 -2.14682,1.88534 -4.28141,3.77941 -2.13458,1.89407 -4.80567,4.12105 -5.93574,4.94885 -1.13008,0.8278 -1.64375,1.34363 -1.14149,1.14628 1.70296,-0.66914 8.71463,-0.82094 10.56175,-0.22867 4.16775,1.33638 6.262,4.11508 6.22426,8.25851 -0.0378,4.15216 -2.05197,6.94421 -6.51261,9.02789 -2.09567,0.97894 -3.30471,1.19695 -7.30553,1.31731 -4.01986,0.12093 -5.10618,-10e-4 -6.72535,-0.7578 z m 6.62456,-3.72855 c 0.0752,-0.39533 -0.41297,-1.26856 -1.08494,-1.94054 -1.88069,-1.88069 -4.75002,-1.47658 -4.75002,0.66898 0,0.93075 0.5404,1.32351 2.47143,1.79623 2.0103,0.49214 3.20544,0.30571 3.36353,-0.52467 z m 61.29904,3.63074 c -1.12215,-0.49752 -2.0998,-0.9641 -2.17256,-1.03687 -0.0728,-0.0727 0.59079,-1.6973 1.47455,-3.61009 1.34671,-2.91476 3.79434,-10.55046 4.96903,-15.50152 0.27851,-1.17385 0.20069,-1.25596 -1.19472,-1.26066 -0.82095,-0.003 -2.27323,-0.13402 -3.22729,-0.29168 l -1.73467,-0.28665 0.13658,-2.10077 0.13658,-2.10076 3.47278,0.147 3.47278,0.14701 0.28911,-1.74978 c 0.15901,-0.96237 0.29137,-2.4278 0.29413,-3.25649 l 0.005,-1.50673 2.62543,0.13694 c 1.56093,0.0814 2.58973,0.33657 2.5374,0.62931 -0.0484,0.27081 -0.23326,1.58713 -0.41075,2.92515 l -0.32272,2.43277 2.12267,-0.29094 c 1.16746,-0.16002 2.63647,-0.41991 3.26447,-0.57752 1.1054,-0.27744 1.1418,-0.21287 1.1418,2.02521 0,2.57943 0.30732,2.39083 -5.17791,3.17764 l -2.21004,0.31702 -1.50282,5.93574 c -1.97183,7.78817 -4.9933,16.70075 -5.63895,16.6335 -0.1703,-0.0178 -1.22776,-0.43931 -2.34991,-0.93683 z m 48.38336,0.48332 c -1.88421,-0.20035 -3.99026,-0.57887 -4.6801,-0.84115 -1.13828,-0.43277 -1.25427,-0.68904 -1.25427,-2.77115 0,-1.26186 0.0927,-2.29428 0.20602,-2.29428 0.11331,0 1.39749,0.31357 2.85372,0.69681 3.90241,1.02703 10.12604,0.94223 12.6456,-0.17229 2.31665,-1.02476 3.1304,-2.22319 2.92829,-4.31254 -0.11121,-1.1497 -0.48358,-1.63372 -1.73959,-2.26117 -3.26254,-1.62982 -11.17589,-0.47234 -14.36227,2.10077 -1.30749,1.05584 -1.41357,1.06818 -3.42447,0.39818 -1.14134,-0.38027 -2.14169,-0.74528 -2.22299,-0.81113 -0.0813,-0.0658 0.17794,-0.74968 0.57609,-1.51962 1.143,-2.2103 3.90939,-9.23631 3.90939,-9.92895 0,-0.41983 -0.56668,-0.62917 -1.71224,-0.63254 -0.94173,-0.003 -2.48274,-0.13238 -3.42447,-0.28804 -1.69418,-0.28003 -1.71223,-0.30552 -1.71223,-2.41857 l 0,-2.13556 4.07296,0.19473 4.07296,0.19473 0.49045,-1.76634 c 0.26975,-0.97149 0.4916,-2.33138 0.493,-3.02198 0.002,-1.22999 0.0585,-1.25564 2.74212,-1.25564 1.50677,0 2.73714,0.1541 2.73415,0.34244 -0.003,0.18835 -0.30874,1.47253 -0.67947,2.85373 -0.37073,1.3812 -0.67649,2.56264 -0.67947,2.62542 -0.0215,0.45211 10.88069,-0.41973 13.51431,-1.08073 0.89945,-0.22574 1.01256,-0.0406 1.19534,1.95671 0.11103,1.21332 0.0817,2.34363 -0.0652,2.51179 -0.1469,0.16816 -3.77304,0.56455 -8.0581,0.88087 l -7.79099,0.57512 -1.02231,2.7719 c -1.7384,4.71352 -1.85023,4.3697 1.09765,3.3745 3.1071,-1.04894 8.68433,-1.20158 11.6323,-0.31835 2.59854,0.77854 5.2466,3.39129 5.65761,5.58218 1.00616,5.36332 -3.48357,9.84709 -10.81369,10.79933 -1.81371,0.23561 -3.40039,0.4074 -3.52595,0.38175 -0.12556,-0.0257 -1.76993,-0.21057 -3.65414,-0.41093 z m 26.71223,-0.45826 c -0.75339,-0.48249 -1.53367,-0.93304 -1.73396,-1.0012 -0.20029,-0.0682 0.66061,-2.07263 1.91312,-4.45436 2.04364,-3.8861 5.07169,-11.79439 5.07169,-13.2456 0,-0.5515 -0.89503,-0.50097 -5.365,0.30291 l -1.48394,0.26688 0,-2.28897 0,-2.28896 2.85372,-0.29715 c 5.51103,-0.57385 5.24444,-0.40236 5.57564,-3.58655 0.56026,-5.38648 0.53627,-5.33875 2.67937,-5.33089 2.96688,0.0109 3.07423,0.20032 2.32879,4.10918 -0.35847,1.87972 -0.652,3.44028 -0.6523,3.46793 -3e-4,0.0277 1.10643,0.16452 2.45937,0.30416 3.10997,0.32097 5.09808,1.34354 6.2339,3.20636 0.74357,1.21953 0.89155,2.30926 0.89301,6.576 0.005,7.73272 -1.30403,12.41734 -3.94617,14.14855 -1.37846,0.90321 -5.17781,0.9734 -7.69645,0.14217 -1.5688,-0.51775 -1.59696,-0.57157 -1.59696,-3.05177 0,-2.21745 0.0972,-2.48722 0.79904,-2.21664 2.54409,0.98089 4.76065,1.33252 5.49819,0.87222 1.20861,-0.7543 1.97368,-3.63457 2.25321,-8.48273 0.33212,-5.76103 -0.18566,-6.75433 -3.52081,-6.75433 l -2.25486,0 -0.49042,1.94053 c -1.69636,6.71241 -6.73467,18.6349 -7.84869,18.5729 -0.32984,-0.0183 -1.21611,-0.42814 -1.96949,-0.91064 z m 114.37723,-0.0236 c -0.87894,-0.53029 -1.67365,-1.03316 -1.76602,-1.11748 -0.0924,-0.0843 0.86256,-2.16667 2.12208,-4.62742 2.27791,-4.45039 5.3692,-12.82721 4.90498,-13.29144 -0.13378,-0.13379 -1.60233,0.007 -3.26343,0.31323 -1.66109,0.30607 -3.0791,0.49549 -3.15106,0.42093 -0.072,-0.0746 -0.27382,-1.09558 -0.44847,-2.26895 l -0.31751,-2.13339 3.6461,-0.31806 c 2.00532,-0.17492 3.87307,-0.45834 4.15054,-0.62982 0.56933,-0.35189 1.42833,-4.39266 1.42833,-6.71915 0,-1.50348 0.0406,-1.53562 1.94053,-1.52877 3.06134,0.011 3.27877,0.31467 2.68145,3.74475 -0.28195,1.61903 -0.51262,3.15496 -0.51262,3.41316 0,0.25821 1.13377,0.58649 2.51954,0.72951 5.75165,0.59362 7.36283,3.2446 6.93478,11.41026 -0.42322,8.07337 -2.05765,12.21073 -5.1625,13.06802 -1.60343,0.44272 -6.93428,-0.10805 -7.54858,-0.77992 -0.22542,-0.24654 -0.86712,-5.1258 -0.67143,-5.10528 0.026,0.003 1.05574,0.31093 2.28851,0.6849 3.31187,1.00468 4.24826,0.88794 5.03182,-0.6273 0.88351,-1.70857 1.77136,-8.88739 1.40517,-11.3621 -0.33678,-2.27615 -1.14966,-2.85491 -4.00973,-2.85491 l -2.01203,0 -0.58404,2.62543 c -1.20618,5.42214 -6.44284,17.92329 -7.50648,17.91968 -0.27601,-9.2e-4 -1.22098,-0.43559 -2.09993,-0.96588 z m 173.88058,-0.24434 -2.1371,-1.18972 1.18765,-1.8812 c 2.33343,-3.69603 6.99258,-15.47799 6.36782,-16.10276 -0.0926,-0.0926 -1.63931,0.10972 -3.43707,0.44965 -2.94623,0.55709 -3.26918,0.54618 -3.2737,-0.11055 -0.005,-0.40073 -0.12721,-1.46713 -0.27651,-2.36977 l -0.27149,-1.64117 4.01461,-0.30858 c 2.20801,-0.16973 4.11242,-0.40643 4.23201,-0.52601 0.11958,-0.11958 0.43376,-2.08055 0.69822,-4.35772 l 0.4808,-4.1403 2.29846,0.30921 c 1.26417,0.17006 2.37292,0.3775 2.46383,0.46098 0.091,0.0835 -0.0631,1.46399 -0.34244,3.0678 -0.79471,4.56366 -0.84772,4.43905 1.88934,4.441 2.6967,0.002 4.83649,1.05021 6.10948,2.99305 1.66772,2.54524 1.23007,13.36106 -0.71941,17.78035 -1.54996,3.51361 -3.96832,4.45424 -8.8475,3.44133 l -2.59246,-0.5382 0,-1.75667 c 0,-0.96616 -0.13721,-2.11425 -0.30492,-2.55131 -0.26856,-0.69987 -0.11885,-0.74959 1.25564,-0.41689 0.85831,0.20776 2.48069,0.39445 3.60524,0.41485 2.55853,0.0464 2.95193,-0.63506 3.66112,-6.34197 0.85808,-6.90532 -0.0283,-8.91689 -3.93019,-8.91689 -1.83451,0 -1.91364,0.0606 -2.22143,1.70132 -0.83169,4.43329 -6.61206,19.32512 -7.4879,19.29098 -0.15675,-0.006 -1.24669,-0.54648 -2.4221,-1.20082 z m 49.62305,0.89847 c -0.75338,-0.0971 -2.42324,-0.38389 -3.7108,-0.63721 l -2.34106,-0.46057 -0.23437,-2.37641 c -0.12889,-1.30702 -0.15976,-2.45641 -0.0685,-2.55421 0.0912,-0.0978 1.44334,0.18065 3.00476,0.61875 3.32567,0.93314 9.49857,1.09713 11.83588,0.31442 3.49099,-1.16907 5.28779,-4.8175 3.3999,-6.90359 -2.69903,-2.98241 -11.27485,-2.12742 -15.65845,1.56111 -1.33663,1.12472 -1.70762,1.21679 -3.76349,0.93404 -1.25436,-0.17252 -2.28065,-0.48339 -2.28065,-0.69083 0,-0.57734 1.82109,-13.33103 2.06121,-14.43517 0.18881,-0.86841 0.44267,-0.94699 2.38535,-0.73829 1.19573,0.12846 2.24385,0.29312 2.32914,0.36593 0.0853,0.0728 -0.20706,2.20159 -0.64969,4.73063 -0.44267,2.52903 -0.71001,4.69307 -0.59408,4.80898 0.11589,0.1159 1.23016,-0.27633 2.47612,-0.87163 3.00436,-1.43545 8.55647,-2.19837 11.68324,-1.60539 3.49332,0.66249 6.0635,2.33671 7.20403,4.69272 1.50594,3.11089 1.09072,5.87151 -1.35463,9.00617 -2.61241,3.34884 -9.0905,5.09591 -15.72388,4.24055 z m 38.05388,-0.10066 c -6.24865,-2.04699 -7.23147,-7.89303 -2.03555,-12.10806 1.03351,-0.83842 2.9513,-2.06251 4.26177,-2.7202 2.54142,-1.27548 2.83295,-2.32711 0.7874,-2.84051 -2.30896,-0.57952 -5.70361,1.17873 -9.68056,5.014 l -2.40114,2.31562 -1.67544,-1.67542 -1.67543,-1.67543 1.80716,-1.96571 c 1.8667,-2.03052 6.1177,-7.79924 6.1177,-8.30189 0,-0.15646 -1.54101,-0.28446 -3.42447,-0.28446 l -3.42447,0 0,-2.31957 0,-2.31958 4.48848,0.31822 4.48847,0.31822 0.51837,-1.30897 c 0.2851,-0.71993 0.64741,-1.86204 0.80521,-2.53802 0.27647,-1.18465 0.3719,-1.21945 2.64113,-0.96336 1.29486,0.14612 2.43138,0.33111 2.52562,0.41107 0.0942,0.08 -0.17365,1.00749 -0.59527,2.06118 l -0.76653,1.9158 4.24798,-0.30281 c 2.33645,-0.16655 5.13369,-0.43246 6.21619,-0.5909 l 1.96816,-0.28808 -0.14178,2.23265 -0.14177,2.23266 -3.65277,0.32743 c -2.00902,0.18008 -5.23459,0.45346 -7.16796,0.6075 -3.44163,0.27422 -3.53706,0.31514 -4.55874,1.95556 -1.52156,2.44307 -1.52119,2.50529 0.01,1.71341 1.6542,-0.85543 5.02305,-0.94451 6.70675,-0.17735 0.6585,0.30002 1.4953,1.12189 1.85962,1.82638 0.36432,0.7045 0.84617,1.2809 1.07086,1.2809 0.22469,0 2.19234,-0.62963 4.37263,-1.39918 2.18029,-0.76954 4.0243,-1.33458 4.09777,-1.25563 0.26505,0.28475 1.59936,3.68892 1.59936,4.08035 0,0.22047 -0.30574,0.40084 -0.67942,0.40084 -0.37372,0 -2.58437,0.6102 -4.91265,1.35601 l -4.23319,1.35601 0.068,3.43825 0.068,3.43824 -2.23261,0 -2.23262,0 0,-2.51127 c 0,-1.38121 -0.15775,-2.51128 -0.35062,-2.51128 -0.53125,0 -3.91074,2.35616 -4.54326,3.16755 -0.9447,1.21184 -0.67449,2.68872 0.65078,3.55671 1.02141,0.669 2.11153,0.79315 6.27819,0.71499 2.77318,-0.052 6.17195,-0.39474 7.55283,-0.76161 1.38083,-0.36686 2.53447,-0.6325 2.56355,-0.59031 0.0292,0.0422 0.18744,1.13192 0.35186,2.42161 0.25318,1.98589 0.17528,2.39573 -0.50888,2.67689 -1.2134,0.49866 -15.69319,0.72875 -17.08887,0.27154 z m 111.70953,-0.0894 c -4.38446,-1.34813 -5.92209,-6.62914 -2.74035,-9.41178 2.47977,-2.1687 7.0208,-2.27688 9.78124,-0.23301 1.11729,0.82726 2.9792,3.22438 3.33612,4.29506 0.24282,0.72842 1.90501,0.0674 3.27475,-1.30235 0.89671,-0.89673 1.18761,-1.65078 1.18761,-3.07845 0,-2.64669 -0.96461,-3.7771 -3.96819,-4.65026 -4.64522,-1.35041 -11.10623,0.15404 -16.51392,3.84528 l -2.77853,1.8966 -1.15436,-1.69881 c -0.6349,-0.93435 -1.14377,-1.90795 -1.13081,-2.16356 0.0128,-0.25562 1.70808,-1.6429 3.76692,-3.08284 3.79038,-2.651 13.30684,-10.80044 12.98631,-11.12092 -0.0958,-0.0958 -2.88249,-0.0216 -6.19253,0.16498 l -6.0183,0.33925 0,-1.94379 c 0,-1.06907 -0.0514,-2.09009 -0.11415,-2.26891 -0.0628,-0.17882 2.96787,-0.37383 6.73479,-0.43336 3.76691,-0.0595 8.00074,-0.22827 9.40857,-0.37499 2.50401,-0.26097 2.58561,-0.23265 3.75728,1.30347 l 1.19769,1.57024 -3.90535,3.48398 c -2.14792,1.91619 -4.91188,4.23547 -6.14217,5.15396 -2.42654,1.81157 -2.62424,2.23889 -0.69686,1.5061 1.60662,-0.61084 7.31138,-0.59878 9.54029,0.0201 2.2665,0.62938 5.13885,3.24717 5.81676,5.30128 1.77273,5.37131 -1.91907,11.0229 -8.31196,12.72447 -2.71218,0.72189 -8.99685,0.8113 -11.12085,0.15821 z m 6.05145,-3.94607 c 0.33025,-1.00289 -2.42078,-3.31252 -3.94558,-3.31252 -1.70201,0 -2.5973,1.292 -1.72342,2.48709 1.00633,1.37626 5.28258,1.9989 5.669,0.82543 z m -854.52,3.3006 c -6.85261,-1.4886 -11.07679,-5.71888 -11.07042,-11.0864 0.005,-4.41023 2.16841,-8.58147 5.93088,-11.43646 l 2.05237,-1.55734 -2.28067,0.2863 c -1.25437,0.15747 -4.95175,0.50254 -8.21641,0.76683 -3.26466,0.2643 -6.39804,0.59487 -6.96308,0.73462 -0.97845,0.24199 -1.02734,0.12524 -1.02734,-2.45315 l 0,-2.70723 11.98564,-0.54877 c 6.59209,-0.30182 13.68074,-0.67511 15.75254,-0.82952 l 3.76692,-0.28076 0,2.51046 0,2.51047 -2.39713,0.28165 c -3.44222,0.40444 -8.56168,3.06835 -10.81391,5.62701 -2.81966,3.2033 -3.48954,7.19459 -1.67286,9.9672 0.99395,1.51697 4.44752,3.02288 7.58489,3.30737 2.61337,0.23697 2.73305,0.30254 2.73305,1.49712 0,0.68712 -0.12842,1.89139 -0.28537,2.67616 -0.32819,1.64094 -0.67523,1.69112 -5.0791,0.73445 z m 95.15319,-0.68155 c -1.49764,-7.48823 -1.33927,-17.04574 0.44149,-26.6435 l 0.75073,-4.04619 2.32966,0.30905 c 1.28131,0.16997 2.3888,0.36817 2.46108,0.44046 0.0723,0.0723 -0.1975,1.54852 -0.59951,3.28055 -0.95235,4.1031 -2.01425,12.12438 -1.98852,15.02061 l 0.0203,2.28298 0.75506,-1.59808 c 0.41527,-0.87895 0.7993,-1.66993 0.85339,-1.75774 0.0541,-0.0878 0.84533,0.0869 1.75832,0.38818 1.28969,0.42564 1.58469,0.71588 1.3225,1.30115 -1.14456,2.55487 -2.87814,8.37118 -3.01438,10.11351 l -0.16066,2.05469 -2.32298,0.13587 c -2.272,0.1329 -2.32921,0.10478 -2.60647,-1.28154 z m -154.644049,0.74686 c -0.115258,-0.11502 -0.15281,-7.1193 -0.08345,-15.56505 l 0.126108,-15.35591 2.742149,0.13562 2.742149,0.13563 0,15.29596 0,15.29596 -2.658698,0.13346 c -1.462284,0.0734 -2.753,0.0394 -2.868257,-0.0757 z m 18.739165,-12.84247 0,-13.01298 -5.022553,0 -5.022554,0 0,-2.51128 0,-2.51128 13.012979,0 13.01298,0 0,2.51128 0,2.51128 -5.287982,0 -5.287982,0 0.15128,13.01327 0.151279,13.01328 -2.853724,-3e-4 -2.853723,-2.9e-4 0,-13.01298 z m 341.799924,12.36718 c -2.51542,-0.9406 -3.9416,-2.5271 -4.23444,-4.71045 -0.29017,-2.16332 0.36303,-4.40406 1.81048,-6.21073 l 1.03637,-1.29358 1.9127,0.76531 1.91269,0.76531 -0.92378,1.24948 c -1.08218,1.46373 -1.28677,4.05248 -0.3671,4.64492 1.75422,1.13004 4.34268,1.43619 7.947,0.93991 2.00902,-0.27662 4.09949,-0.63097 4.6455,-0.78744 0.89113,-0.25537 1.02547,-0.0661 1.31263,1.84872 0.19825,1.32206 0.13605,2.31705 -0.16357,2.61668 -0.81966,0.81965 -12.78668,0.95781 -14.88848,0.17187 z m 280.3118,-0.44949 c -3.02545,-0.95683 -4.7864,-2.06612 -5.72594,-3.60699 -1.76817,-2.89993 -0.72393,-7.21178 2.50438,-10.34079 l 1.58261,-1.53393 1.61854,1.2345 c 1.57726,1.20304 2.07669,2.10122 1.16838,2.10122 -0.24756,0 -0.98209,0.80386 -1.63228,1.78636 -1.6826,2.54258 -1.40221,4.11932 0.94091,5.29087 1.57753,0.78877 2.6351,0.90201 7.76212,0.83111 3.26466,-0.0452 7.19773,-0.36533 8.74021,-0.71151 l 2.80441,-0.62943 0.22021,2.5379 c 0.12109,1.39584 0.18944,2.57734 0.15187,2.62555 -0.0374,0.0482 -1.39865,0.30349 -3.02463,0.56729 -4.0685,0.66008 -14.84553,0.56425 -17.11079,-0.15215 z m -174.44565,-2.22788 -0.93922,-2.46628 4.13539,-0.50155 c 5.29783,-0.64252 8.29954,-1.5705 10.69644,-3.30682 2.66268,-1.92882 3.70861,-3.81468 3.71071,-6.69045 0,-2.83814 -1.37947,-4.80329 -3.9802,-5.66159 -3.23338,-1.06712 -14.24537,0.41511 -20.36156,2.74069 -0.70695,0.26881 -1.36016,0.48874 -1.45157,0.48874 -0.39377,0 -1.19258,-5.15089 -0.8442,-5.44352 0.9421,-0.79131 14.29487,-2.99119 18.19219,-2.99718 5.18944,-0.008 7.91632,0.78119 10.47175,3.03056 2.68241,2.36117 3.65492,4.92654 3.3426,8.81747 -0.61741,7.69138 -7.77048,12.99125 -19.10529,14.15549 l -2.92778,0.30072 -0.93926,-2.46628 z M 233.17709,831.6 c -4.01499,-1.06982 -6.15939,-3.43643 -6.16234,-6.80093 -0.002,-1.97303 1.13975,-4.90135 2.70271,-6.93345 l 0.85899,-1.11684 1.87106,0.84373 c 2.03495,0.91764 2.21406,1.22176 1.2102,2.05489 -0.36348,0.30166 -1.00622,1.45276 -1.42832,2.55801 -0.71881,1.88219 -0.71882,2.08374 -1.4e-4,3.18058 0.42201,0.64408 1.32159,1.38855 1.99906,1.65438 1.49381,0.58615 8.815,0.22109 10.95772,-0.5464 0.82899,-0.29693 1.5731,-0.46474 1.65357,-0.37293 0.0805,0.0918 0.24359,1.22779 0.36246,2.52438 0.20515,2.23786 0.15602,2.37125 -0.96868,2.62959 -2.04189,0.46901 -11.62092,0.70744 -13.05629,0.32499 z m 326.59185,-3.50967 -2.15705,-1.12301 1.76913,-2.73718 c 1.55535,-2.40643 4.3056,-8.32652 5.24843,-11.29758 0.28523,-0.89884 0.1651,-1.02797 -0.9604,-1.03237 -0.70754,-0.003 -2.06701,-0.13402 -3.02107,-0.29168 l -1.73465,-0.28665 0.13656,-2.06694 0.13657,-2.06694 3.50031,0.10434 3.50026,0.10433 0.47144,-2.42583 c 0.2593,-1.3342 0.53339,-2.82214 0.6091,-3.30654 0.0757,-0.4844 0.29172,-0.84397 0.48006,-0.79904 0.18835,0.0449 1.29331,0.0817 2.45548,0.0817 l 2.11304,0 -0.30848,1.94053 c -0.16967,1.06729 -0.43176,2.43505 -0.58243,3.03946 -0.26752,1.07327 -0.22168,1.09269 1.96236,0.83147 1.22997,-0.14711 2.59588,-0.40678 3.03535,-0.57704 0.69572,-0.26955 0.79905,-0.0144 0.79905,1.97341 0,2.63272 -0.0628,2.67794 -4.32657,3.11477 l -2.94532,0.30176 -0.9867,3.02069 c -1.08546,3.32306 -6.33079,14.67651 -6.76497,14.64263 -0.14981,-0.0117 -1.24308,-0.52662 -2.4295,-1.14427 z m -418.48175,-2.5671 c -0.81617,-0.50457 -1.48394,-1.06813 -1.48394,-1.25237 0,-0.18424 0.53427,-0.83309 1.18726,-1.44191 0.65299,-0.60881 1.78482,-2.286 2.51519,-3.72709 l 1.32794,-2.62016 1.93662,0.75388 c 1.06513,0.41464 2.01287,0.81385 2.10608,0.88715 0.23627,0.1858 -2.57498,5.11253 -3.94271,6.90961 -1.29636,1.70331 -1.61575,1.7463 -3.64644,0.49089 z m 21.06498,-0.91829 c -0.72447,-0.54899 -1.40713,-1.06697 -1.51703,-1.15107 -0.10991,-0.0841 0.62868,-1.02184 1.64129,-2.08387 1.01261,-1.06202 2.29642,-2.59655 2.8529,-3.41006 l 1.01178,-1.47911 1.79873,0.91764 c 0.9893,0.50471 1.79873,1.09123 1.79873,1.30339 0,0.81685 -5.26269,6.90123 -5.96923,6.90123 -0.16498,0 -0.8927,-0.44917 -1.61717,-0.99815 z m 463.29404,-3.58838 c -0.53307,-1.75506 -1.78414,-4.73832 -2.78012,-6.62947 -0.99601,-1.89114 -1.8109,-3.52725 -1.8109,-3.63577 0,-0.10854 0.8232,-0.6173 1.82935,-1.1306 l 1.82935,-0.93327 1.8088,2.79857 c 1.45951,2.25812 4.57761,9.21525 4.57761,10.21358 0,0.12944 -1.00908,0.74668 -2.24244,1.37166 l -2.24238,1.13631 -0.96927,-3.19101 z m -113.93027,1.50451 c -0.56203,-2.26301 -2.90281,-7.76688 -4.12991,-9.71077 -0.66129,-1.04751 -1.1361,-1.96262 -1.0552,-2.03359 0.0809,-0.071 0.98246,-0.55006 2.00341,-1.06465 l 1.85629,-0.93561 1.89921,3.07779 c 1.69922,2.75372 4.20502,8.49859 4.20502,9.64063 0,0.44228 -3.25827,2.28184 -4.0417,2.28184 -0.23386,0 -0.56558,-0.56504 -0.73712,-1.25564 z m 288.57418,0.68489 c -0.0982,-0.31391 -0.53143,-1.70082 -0.96273,-3.08202 -1.00963,-3.23323 -3.46721,-8.14722 -4.96448,-9.92661 -0.64411,-0.7655 -1.17112,-1.51208 -1.17112,-1.65907 0,-0.2412 3.36315,-2.11219 3.79673,-2.11219 0.37254,0 3.89623,5.34713 5.1084,7.75186 0.69334,1.37556 1.63009,3.5748 2.08162,4.8872 l 0.82096,2.38617 -2.0803,1.1627 c -2.40831,1.34603 -2.39421,1.34285 -2.62908,0.59196 z m -623.87131,-2.21451 0.1404,-1.87207 7.45701,0.0657 c 6.9457,0.0612 7.44601,0.01 7.2966,-0.75335 -0.1438,-0.73427 -0.73843,-0.81904 -5.7451,-0.81904 l -5.5847,0 3.3e-4,-1.71223 3.3e-4,-1.71224 5.74092,0 c 5.22405,0 5.72654,-0.0719 5.58109,-0.79904 -0.14055,-0.70258 -0.72336,-0.79289 -4.82773,-0.74804 l -4.6679,0.051 0,-1.76323 0,-1.76323 4.75151,0 c 4.52671,0 4.74021,-0.0432 4.51271,-0.91319 -0.21583,-0.82532 -0.014,-0.91319 2.09742,-0.91319 2.03184,0 2.33624,0.11898 2.33624,0.91319 0,0.85815 0.30439,0.91319 5.05011,0.91319 l 5.05012,0 -0.14171,1.71224 -0.14172,1.71223 -4.9084,-0.16399 c -4.74051,-0.15838 -4.9084,-0.13104 -4.9084,0.79905 0,0.93025 0.202,0.96302 5.93574,0.96302 l 5.93575,0 1.8e-4,1.71224 1.9e-4,1.71223 -5.93593,-0.16 c -5.81675,-0.15679 -5.93593,-0.14032 -5.93593,0.82034 0,0.9686 0.0903,0.97872 7.53443,0.8449 l 7.53444,-0.13545 -4.5e-4,1.94053 -4.6e-4,1.94053 -17.14859,0 -17.1486,0 0.1404,-1.87206 z m -50.41103,-5.45094 -1.69569,-2.71577 1.38604,-0.71675 c 1.1092,-0.57358 1.52154,-0.60429 2.06445,-0.15371 0.75994,0.6307 3.11406,4.49275 2.85008,4.67571 -0.77703,0.53857 -2.67504,1.6634 -2.77898,1.64692 -0.0716,-0.0114 -0.89327,-1.24273 -1.8259,-2.7364 z m 295.97166,0.1483 0,-2.25581 3.53861,-0.53861 c 1.94624,-0.29624 5.4392,-0.53725 7.76213,-0.5356 l 4.22351,0.003 0,2.22445 0,2.22445 -6.27819,0.274 c -3.45301,0.1507 -6.94596,0.40583 -7.76213,0.56695 l -1.48393,0.29295 0,-2.2558 z m -290.39491,-0.0621 c 0,-0.21333 -0.61267,-1.29204 -1.36148,-2.39713 -0.74881,-1.10508 -1.36522,-2.13036 -1.36979,-2.27839 -0.009,-0.2984 2.09208,-1.32893 2.70973,-1.32893 0.42197,0 3.21771,4.025 3.21771,4.63251 0,0.33929 -2.37739,1.75983 -2.9452,1.75983 -0.13803,0 -0.25097,-0.17455 -0.25097,-0.38789 z m 11.50232,-3.73118 c -1.58425,-2.00369 -3.07389,-3.64306 -3.31032,-3.64306 -0.86269,0 -0.39593,-1.23146 0.95865,-2.52923 0.7637,-0.73166 2.00063,-2.28417 2.74875,-3.45001 l 1.36022,-2.11972 2.04551,0.73556 c 1.12503,0.40456 2.04551,0.92671 2.04551,1.16034 0,0.23362 -1.01392,1.5905 -2.25316,3.01527 l -2.25315,2.59051 2.70975,2.68147 c 1.49036,1.47481 2.70975,2.80395 2.70975,2.95365 0,0.14969 -0.77051,0.66444 -1.71224,1.14387 -0.94172,0.47944 -1.81496,0.92406 -1.94053,0.98805 -0.12556,0.064 -1.5245,-1.52302 -3.10874,-3.5267 z m 23.47871,2.53543 c -0.40345,-0.61574 -1.94917,-2.41904 -3.43494,-4.00732 l -2.70138,-2.88779 2.04612,-2.46394 c 1.12537,-1.35518 2.33936,-3.03102 2.69777,-3.7241 l 0.65165,-1.26015 2.0569,0.70086 c 1.13129,0.38547 2.05676,0.83564 2.0566,1.00038 -1.5e-4,0.16474 -0.94631,1.5046 -2.10257,2.97747 l -2.10228,2.67793 2.63512,2.66291 c 2.85093,2.881 2.8664,3.13295 0.2854,4.648 -1.33269,0.78228 -1.36684,0.77698 -2.08839,-0.32425 z m 421.30471,-0.93852 c -1.04949,-0.62904 -3.41237,-1.78029 -5.25086,-2.55832 -1.83852,-0.77802 -3.41483,-1.4807 -3.50295,-1.56151 -0.0881,-0.0808 0.31012,-0.98386 0.88506,-2.00678 1.23783,-2.20242 1.02593,-2.22917 7.58949,0.95795 l 4.66157,2.26354 -0.98565,2.02874 c -0.54207,1.11581 -1.0988,2.02681 -1.2371,2.02443 -0.13831,-0.002 -1.11013,-0.51899 -2.15956,-1.14805 z m 121.76742,-0.19457 c -0.87735,-0.72731 -1.49375,-1.4148 -1.36979,-1.52777 0.12397,-0.11297 1.25272,-0.84402 2.50836,-1.62454 l 2.28298,-1.41914 -5.30793,-0.009 c -2.91934,-0.005 -5.94999,-0.13709 -6.73479,-0.29405 -1.37006,-0.27401 -1.42686,-0.37637 -1.42686,-2.57102 l 0,-2.28564 1.71223,0.29331 c 3.43004,0.58758 13.21316,0.81491 16.5516,0.3846 1.88346,-0.24277 3.45661,-0.41636 3.49593,-0.38576 0.0393,0.0306 0.21446,1.01667 0.38929,2.19127 l 0.31788,2.13564 -1.98742,1.00726 c -1.09305,0.554 -3.481,2.00721 -5.30651,3.22936 -1.82552,1.22216 -3.36653,2.21657 -3.42447,2.20982 -0.0579,-0.007 -0.82315,-0.60735 -1.7005,-1.33466 z m -532.85018,-6.18689 0,-4.33766 7.07723,0 7.07724,0 0,-1.36979 c 0,-1.35519 0.0266,-1.36978 2.49986,-1.36978 l 2.49986,0 -0.27164,1.35821 -0.27164,1.35822 7.40223,0.12571 7.40223,0.12573 0.002,4.10936 0.002,4.10936 -2.09837,0.13917 -2.09837,0.13916 0,-2.30799 0,-2.308 -12.32808,0 -12.32809,0 0,2.28298 0,2.28298 -2.28298,0 -2.28298,0 0,-4.33766 z m 51.93777,3.56632 c -0.61771,-0.16143 -0.79905,-0.69472 -0.79905,-2.34996 l 0,-2.14114 6.2782,0.006 c 3.453,0.003 7.47047,-0.15137 8.92771,-0.34347 l 2.64953,-0.34926 -0.13825,2.40395 -0.13825,2.40394 -2.51127,0.29729 c -2.85008,0.3374 -13.0569,0.38952 -14.26862,0.0729 z m 601.67907,-0.90338 c -4.91594,-1.07132 -13.46958,-4.13078 -13.46958,-4.81779 0,-0.57912 1.80022,-3.5526 2.15084,-3.5526 0.13748,0 1.7131,0.52844 3.50136,1.1743 1.7883,0.64587 4.86877,1.56121 6.84556,2.0341 1.97678,0.47289 3.67126,0.93695 3.76559,1.03125 0.26492,0.26494 -1.24217,4.44264 -1.58105,4.38271 -0.16474,-0.0291 -0.71047,-0.14252 -1.21272,-0.25197 z m -323.9547,-3.47019 c -0.87895,-1.31391 -1.65329,-2.50314 -1.72073,-2.64274 -0.0675,-0.13961 0.55134,-0.57525 1.37518,-0.9681 l 1.49786,-0.71428 1.45389,1.89387 c 2.17819,2.83741 2.25006,3.29322 0.64965,4.12083 -0.76128,0.39366 -1.44567,0.71206 -1.52092,0.70755 -0.0753,-0.005 -0.85598,-1.08322 -1.73493,-2.39713 z m 114.27168,-0.26534 -1.88342,-2.67068 1.51508,-0.72247 c 1.44549,-0.68932 1.55708,-0.67677 2.43046,0.27354 0.50349,0.54782 1.33846,1.70261 1.85556,2.56621 l 0.94008,1.57018 -1.35978,0.82695 c -0.74791,0.45482 -1.41714,0.82695 -1.48718,0.82695 -0.07,0 -0.97493,-1.20181 -2.0108,-2.67068 z m 319.0377,1.25221 c -1.88345,-0.21274 -4.89228,-0.70892 -6.68629,-1.10261 l -3.26183,-0.71581 0.69594,-2.17623 0.6959,-2.17622 3.68505,0.79969 c 2.02673,0.43984 5.51522,0.94288 7.75212,1.11787 l 4.06718,0.31817 -0.27287,1.64946 c -0.15003,0.9072 -0.27505,1.9063 -0.27783,2.22021 -0.005,0.64014 -1.20131,0.65237 -6.39737,0.0655 z m -428.92889,-3.14855 c -0.90251,-1.25622 -1.64091,-2.38102 -1.64091,-2.49955 0,-0.11854 0.62896,-0.54076 1.39764,-0.93828 1.35887,-0.70269 1.42544,-0.68827 2.39712,0.5196 0.54974,0.68329 1.37175,1.81329 1.82671,2.51111 l 0.82726,1.26877 -1.37532,0.71119 c -0.75639,0.39116 -1.46896,0.7112 -1.58342,0.7112 -0.11452,0 -0.94657,-1.02782 -1.84908,-2.28404 z m 114.21213,-0.22864 -1.72031,-2.47803 1.41942,-0.73401 c 1.31929,-0.68224 1.48192,-0.67743 2.30581,0.0682 0.48755,0.44121 1.32344,1.5093 1.85756,2.37353 l 0.97114,1.57133 -1.10003,0.84569 c -0.60504,0.46512 -1.3055,0.84245 -1.55663,0.83851 -0.25113,-0.004 -1.23075,-1.12229 -2.17696,-2.4852 z m -69.06723,-34.87314 c -0.16273,-0.40696 -0.90652,-2.45512 -1.65292,-4.55146 -3.15859,-8.87175 -7.05778,-16.51709 -12.8161,-25.12902 -1.74355,-2.60754 -3.26379,-4.98524 -3.37835,-5.28377 -0.14378,-0.37469 1.17587,-0.72019 4.26123,-1.11562 18.72855,-2.40035 36.7786,-7.77449 49.07404,-14.6111 23.02585,-12.80298 36.12942,-32.40358 39.22217,-58.66935 0.54888,-4.66117 0.363,-20.82346 -0.25642,-22.29798 -0.30569,-0.72768 0.30806,-0.79819 7.94846,-0.91319 l 8.27977,-0.12462 -3.19165,-4.90234 c -6.70264,-10.29519 -15.82255,-22.16017 -26.23882,-34.1366 -3.16699,-3.64135 -5.75854,-6.73127 -5.75895,-6.86648 -4.6e-4,-0.1352 1.97446,-2.39535 4.38871,-5.02255 11.40681,-12.41301 18.3783,-22.0618 25.71958,-35.59693 1.5664,-2.88797 2.98362,-5.39426 3.14932,-5.56953 0.16575,-0.17526 8.31461,2.51294 18.10859,5.9738 9.79398,3.46086 18.0732,6.38112 18.39825,6.48947 1.18747,0.39582 -14.7558,21.31386 -22.41666,29.41135 l -4.31432,4.56023 7.81911,8.00053 c 8.47295,8.66953 20.49256,22.89449 19.84666,23.48815 -0.0858,0.0789 -6.52553,3.33982 -14.31049,7.24658 l -14.15446,7.10319 7.93527,0.0247 7.93522,0.0247 -0.30359,2.68367 c -0.56604,5.00319 -0.31309,19.05797 0.43463,24.14937 2.25431,15.34992 7.11568,25.41741 17.21047,35.64134 14.73009,14.91857 38.37176,25.59113 67.54211,30.49056 4.10251,0.68906 7.51552,1.2906 7.58446,1.33676 0.069,0.0462 -1.33677,2.42464 -3.12389,5.28549 -4.05776,6.49567 -9.65577,17.83291 -12.93467,26.19558 -1.3765,3.51063 -2.7167,6.45429 -2.97819,6.54146 -1.10378,0.36793 -22.45789,-6.7676 -31.63944,-10.5724 -26.41973,-10.94826 -47.51162,-27.96504 -58.71543,-47.37106 -1.42983,-2.47664 -2.70245,-4.50566 -2.82802,-4.50894 -0.12556,-0.003 -1.43946,2.45683 -2.91975,5.46689 -7.70984,15.67743 -17.04065,25.58016 -34.2928,36.39483 -15.22277,9.54252 -29.37952,15.12433 -51.68331,20.37798 -4.21032,0.99174 -4.68212,1.0257 -4.94982,0.35629 z m 244.67748,-4.05025 c 0.14958,-0.94173 0.51143,-6.54074 0.80411,-12.44224 0.5249,-10.58343 0.29884,-48.44226 -0.33605,-56.27603 l -0.28684,-3.53922 1.54403,0.34305 c 1.97971,0.43985 164.97042,0.45273 166.93995,0.0132 l 1.47809,-0.32986 -0.3366,4.21092 c -0.45792,5.72954 -0.4282,58.70987 0.0365,64.82401 l 0.37299,4.90841 -18.06608,0 -18.06608,0 0,-4.10936 0,-4.10937 -48.85575,0 -48.85574,0 0,4.10937 0,4.10936 -18.32219,0 -18.32218,0 0.2719,-1.71224 z m 134.08396,-39.38139 0,-5.02255 -48.85575,0 -48.85574,0 0,5.02255 0,5.02256 48.85574,0 48.85575,0 0,-5.02256 z m -871.184715,-68.26107 0,-102.04915 20.775108,0 20.775107,0 0,102.04915 0,102.04916 -20.775107,0 -20.775108,0 0,-102.04916 z M 189.87659,759.09231 c -0.16742,-0.16741 -0.3044,-38.28175 -0.3044,-84.69852 l 0,-84.39411 -30.13532,0 -30.13532,0 0,-17.35064 0,-17.35064 81.04575,0 81.04575,0 0,17.35064 0,17.35064 -30.13532,0 -30.13532,0 0,84.69851 0,84.69852 -20.47071,0 c -11.2589,0 -20.6077,-0.13698 -20.77511,-0.3044 z m 158.47605,-37.0209 -12.21253,-12.21253 22.02864,-22.03215 22.02864,-22.03215 -22.14066,-22.1442 -22.14066,-22.14419 12.32316,-12.3295 12.32316,-12.3295 21.9208,21.91731 c 12.05644,12.05452 22.1247,21.91731 22.3739,21.91731 0.24921,0 10.31747,-9.86279 22.37391,-21.91731 l 21.9208,-21.91731 12.32316,12.3295 12.32316,12.3295 -22.14066,22.14419 -22.14067,22.1442 22.0297,22.0332 22.02969,22.03321 -12.3295,12.32316 -12.3295,12.32315 -22.03181,-22.02829 -22.03181,-22.0283 -21.91304,21.91662 c -12.05218,12.05413 -22.01707,21.91661 -22.1442,21.91661 -0.12713,0 -5.72679,-5.49563 -12.44368,-12.21253 z m 215.07208,-22.57663 -16.72442,-8.70119 3.9644,-4.62323 c 11.24746,-13.11669 17.36118,-22.8521 23.83512,-37.95472 1.29175,-3.01353 2.40142,-5.53347 2.46589,-5.59986 0.16364,-0.16852 34.1935,11.37725 34.61891,11.74565 0.70023,0.60631 -6.93012,16.80872 -12.46826,26.47531 -1.72726,3.01492 -4.82668,8.00382 -6.88752,11.08646 -3.65117,5.46142 -11.13496,15.68887 -11.76511,16.07831 -0.173,0.10695 -7.84057,-3.72108 -17.03901,-8.50673 z m 134.33856,-4.28444 c -8.16165,-5.40912 -15.02127,-10.01512 -15.24363,-10.23556 -0.23342,-0.23137 2.82399,-3.54008 7.23252,-7.82708 10.62736,-10.33437 16.83372,-18.30484 23.77284,-30.53015 1.21162,-2.13458 2.24713,-3.94359 2.30124,-4.02002 0.15442,-0.2183 33.53235,16.53892 33.53235,16.83475 0,0.53829 -7.54904,11.78363 -11.32029,16.86312 -2.14454,2.88845 -5.81433,7.54059 -8.15516,10.33809 -4.82987,5.7721 -16.49142,18.43261 -16.96656,18.41996 -0.17268,-0.005 -6.99166,-4.43399 -15.15331,-9.84311 z m 80.81745,-22.12697 0,-14.67544 2.85372,0.26394 c 1.56955,0.14517 21.49995,0.3914 44.28979,0.54717 l 41.43607,0.28323 0,-3.76281 0,-3.76281 -31.39096,0.28438 c -17.26503,0.15641 -32.16147,0.41137 -33.1032,0.56658 l -1.71223,0.28219 0,-12.88786 0,-12.88787 1.25564,0.34149 c 0.6906,0.18781 15.58704,0.43202 33.10319,0.54268 l 31.84756,0.2012 0,-3.74316 0,-3.74316 -30.93437,0.26967 c -17.0139,0.14832 -31.60213,0.403 -32.4183,0.56596 l -1.48393,0.29628 0,-5.7513 0,-5.75129 -11.30075,-0.12213 c -10.99008,-0.11877 -11.29828,-0.14723 -11.21047,-1.03531 0.87273,-8.82927 1.13518,-18.04097 0.89109,-31.27682 -0.15511,-8.41277 -0.41637,-16.39761 -0.58056,-17.74407 l -0.29848,-2.44811 2.23179,0.3015 c 1.22752,0.16583 20.49736,0.41147 42.82188,0.54587 l 40.59004,0.24437 -0.29715,-5.85989 c -0.16341,-3.22293 -0.42244,-6.52765 -0.57558,-7.34382 l -0.27844,-1.48393 19.97735,0 19.97734,0 -0.30692,2.39712 c -0.16881,1.31843 -0.43455,4.62262 -0.59056,7.34265 l -0.28364,4.94553 42.19132,-0.24179 c 23.20525,-0.13298 43.16145,-0.37537 44.34718,-0.53865 l 2.15582,-0.29688 -0.32943,3.12697 c -0.45464,4.31472 -0.41546,38.03842 0.0514,44.33473 l 0.38094,5.13671 -11.22509,0 -11.22508,0 0,5.7574 0,5.7574 -1.71224,-0.28777 c -0.94173,-0.15827 -16.04363,-0.41164 -33.55979,-0.56303 l -31.84755,-0.27528 0,3.74118 0,3.74117 32.98904,-0.21237 c 18.14398,-0.1168 33.50272,-0.28527 34.13054,-0.37437 l 1.14149,-0.16199 0,12.55638 0,12.55639 -1.82639,-0.10102 c -1.00451,-0.0556 -16.36325,-0.23621 -34.13053,-0.40145 l -32.30415,-0.30043 0,3.76102 0,3.76101 42.34926,-0.2814 c 23.29209,-0.15477 43.63343,-0.40065 45.20298,-0.5464 l 2.85372,-0.265 0,14.683 0,14.683 -3.76691,-0.37383 c -4.87133,-0.48342 -201.11213,-0.49061 -206.38129,-0.008 l -3.99521,0.36626 0,-14.67543 z m 88.57958,-80.34412 0,-3.65277 -25.79766,0 -25.79767,0 0,3.65277 0,3.65277 25.79767,0 25.79766,0 0,-3.65277 z m 89.03617,0 0,-3.65277 -26.93915,0 -26.93915,0 0,3.65277 0,3.65277 26.93915,0 26.93915,0 0,-3.65277 z m -374.18023,47.14964 c -3.39757,-5.72499 -11.59155,-17.89647 -15.68041,-23.29194 -5.17752,-6.83203 -9.59933,-11.98533 -17.05394,-19.87519 l -5.94383,-6.2909 2.44502,-2.69688 c 1.34482,-1.48328 4.22858,-4.66578 6.40842,-7.07222 9.73206,-10.74372 20.18194,-25.43356 24.62005,-34.60943 0.57696,-1.19286 1.26491,-2.17272 1.52878,-2.17747 0.61622,-0.0111 36.90015,12.38568 37.33268,12.75511 0.35345,0.3019 -5.64681,8.37493 -11.90614,16.01907 -2.15916,2.63684 -6.78534,7.72112 -10.2804,11.29841 l -6.35467,6.50415 7.25905,7.42485 c 9.21461,9.42511 23.46816,26.29828 23.46816,27.7813 0,0.34397 -32.18466,16.82863 -33.55979,17.18899 -0.25113,0.0658 -1.27847,-1.26522 -2.28298,-2.95785 z m 130.59388,-5.49479 c -9.04845,-13.74683 -17.76573,-24.86383 -28.90388,-36.86059 l -5.93488,-6.39235 1.20651,-1.44149 c 0.66352,-0.79282 3.40972,-3.82927 6.10258,-6.74767 9.88448,-10.71235 19.45742,-23.80684 25.20299,-34.47424 1.41184,-2.62128 2.63602,-4.83498 2.72035,-4.91934 0.19082,-0.19081 34.62088,13.08945 35.1172,13.5453 0.39696,0.36461 -8.96732,13.07282 -14.96662,20.31104 -2.09445,2.52697 -5.6374,6.53781 -7.87326,8.91298 l -4.06517,4.3185 7.24933,7.06497 c 3.98713,3.88574 9.25908,9.33927 11.71547,12.11896 4.90087,5.54589 11.46083,13.53407 11.46083,13.95609 0,0.25004 -33.45267,18.28791 -33.83891,18.24615 -0.0976,-0.0105 -2.43425,-3.44779 -5.19254,-7.63831 z"
       id="path4217"
       inkscape:connector-curvature="0" />
  </g>
</svg>
